<svg id="Слой_1" data-name="Слой 1" xmlns="http://www.w3.org/2000/svg" xmlns:xlink="http://www.w3.org/1999/xlink" viewBox="0 0 484.5 415.5"><defs><style>.cls-1{fill:none;stroke-width:2.5px;}.cls-1,.cls-2,.cls-3{stroke:#8c5858;}.cls-2{fill:#521e1e;}.cls-2,.cls-3{stroke-width:10px;}.cls-3{fill:#410000;}.cls-4,.cls-5{isolation:isolate;}.cls-5{font-size:46.47px;font-family:Oswald-Regular, Oswald;}.cls-6{fill:url(#Безымянный_градиент);}.cls-7{fill:url(#Безымянный_градиент_2);}.cls-8{fill:url(#Безымянный_градиент_3);}.cls-9{fill:url(#Безымянный_градиент_4);}.cls-10{fill:url(#Безымянный_градиент_5);}.cls-11{fill:url(#Безымянный_градиент_6);}.cls-12{fill:url(#Безымянный_градиент_7);}.cls-13{fill:url(#Безымянный_градиент_8);}</style><linearGradient id="Безымянный_градиент" x1="161.85" y1="37.93" x2="161.85" y2="76.31" gradientTransform="matrix(1, 0, 0, -1, 0, 416)" gradientUnits="userSpaceOnUse"><stop offset="0" stop-color="#b04343"/><stop offset="0.5" stop-color="#851d1d"/><stop offset="1" stop-color="#eb7171"/></linearGradient><linearGradient id="Безымянный_градиент_2" x1="186.2" y1="37.9" x2="186.2" y2="76.28" xlink:href="#Безымянный_градиент"/><linearGradient id="Безымянный_градиент_3" x1="211.7" y1="37.93" x2="211.7" y2="76.31" xlink:href="#Безымянный_градиент"/><linearGradient id="Безымянный_градиент_4" x1="232.05" y1="37.93" x2="232.05" y2="76.31" xlink:href="#Безымянный_градиент"/><linearGradient id="Безымянный_градиент_5" x1="253.2" y1="37.93" x2="253.2" y2="76.31" xlink:href="#Безымянный_градиент"/><linearGradient id="Безымянный_градиент_6" x1="274.35" y1="37.93" x2="274.35" y2="76.31" xlink:href="#Безымянный_градиент"/><linearGradient id="Безымянный_градиент_7" x1="293.8" y1="37.93" x2="293.8" y2="76.31" xlink:href="#Безымянный_градиент"/><linearGradient id="Безымянный_градиент_8" x1="319.6" y1="37.93" x2="319.6" y2="76.31" xlink:href="#Безымянный_градиент"/></defs><rect id="Прямоугольник_7" data-name="Прямоугольник 7" class="cls-1" x="1.25" y="1.25" width="482" height="413"/><rect id="Прямоугольник_5" data-name="Прямоугольник 5" class="cls-2" x="53.85" y="384.55" width="377" height="9"/><circle id="Эллипс_1" data-name="Эллипс 1" class="cls-3" cx="242.25" cy="160.85" r="139"/><g class="cls-4"><text class="cls-5" transform="translate(149.3 377.7)">DOKERcom</text><path class="cls-6" d="M152.2,377.7V340h8.2a13.57,13.57,0,0,1,6.6,1.3,7.62,7.62,0,0,1,3.5,3.8,16.86,16.86,0,0,1,1,6.4v13.8a18.55,18.55,0,0,1-1,6.7,8.32,8.32,0,0,1-3.4,4.2,12.78,12.78,0,0,1-6.3,1.4h-8.6Zm5.2-3.8h3a6.29,6.29,0,0,0,4.1-1.1,5.11,5.11,0,0,0,1.5-3.3,37.36,37.36,0,0,0,.3-5.2V352.1a20,20,0,0,0-.4-4.7,3.69,3.69,0,0,0-1.6-2.6,6.88,6.88,0,0,0-3.9-.8h-2.8v29.9Z" transform="translate(0.05 0.05)"/><path class="cls-7" d="M186.3,378.1a11,11,0,0,1-6.1-1.5,8.5,8.5,0,0,1-3.3-4.3,18.13,18.13,0,0,1-1-6.5V351.5a17.56,17.56,0,0,1,1-6.4,7.9,7.9,0,0,1,3.3-4.1,11.71,11.71,0,0,1,6.1-1.4,11.32,11.32,0,0,1,6,1.4,7.73,7.73,0,0,1,3.2,4.1,17.56,17.56,0,0,1,1,6.4v14.3a17.93,17.93,0,0,1-1,6.4,9.23,9.23,0,0,1-3.2,4.3A9.92,9.92,0,0,1,186.3,378.1Zm0-4.2a5.07,5.07,0,0,0,3.2-.9,4.18,4.18,0,0,0,1.4-2.4,18.84,18.84,0,0,0,.4-3.6V350.5a12.77,12.77,0,0,0-.4-3.6,3.64,3.64,0,0,0-1.4-2.3,6.8,6.8,0,0,0-6.4,0,4.23,4.23,0,0,0-1.5,2.3,17.94,17.94,0,0,0-.4,3.6V367a12.77,12.77,0,0,0,.4,3.6,3.84,3.84,0,0,0,1.5,2.4A4.89,4.89,0,0,0,186.3,373.9Z" transform="translate(0.05 0.05)"/><path class="cls-8" d="M201.7,377.7V340H207v17.8l8.6-17.8h4.9l-7.4,16.6,8.6,21h-5.1l-7.2-17.7-2.4,4.4v13.3h-5.3Z" transform="translate(0.05 0.05)"/><path class="cls-9" d="M224.7,377.7V340h14.6v3.9H230v12.5h7.6v3.7H230v13.8h9.4v3.8Z" transform="translate(0.05 0.05)"/><path class="cls-10" d="M243.6,377.7V340h7.6a15.78,15.78,0,0,1,6.2,1,6.69,6.69,0,0,1,3.6,3.2,12.19,12.19,0,0,1,1.2,5.8,16.2,16.2,0,0,1-.5,4,7.08,7.08,0,0,1-1.5,3,6.43,6.43,0,0,1-2.7,1.8l5.3,18.9h-5.1L253,360h-4.1v17.7Zm5.3-21.5h2a9,9,0,0,0,3.6-.6,3.72,3.72,0,0,0,2-1.9,9.53,9.53,0,0,0,.7-3.8,7.69,7.69,0,0,0-1.2-4.8q-1.2-1.5-4.8-1.5h-2.3Z" transform="translate(0.05 0.05)"/><path class="cls-11" d="M274.7,378a7.86,7.86,0,0,1-5-1.3,6.73,6.73,0,0,1-2.3-3.7,23.44,23.44,0,0,1-.6-5.6v-6.2a24,24,0,0,1,.6-5.8,6.73,6.73,0,0,1,2.3-3.7,7.73,7.73,0,0,1,4.9-1.3,7.9,7.9,0,0,1,4.5,1,4.76,4.76,0,0,1,2.2,2.8,15.8,15.8,0,0,1,.6,4.7v1.6h-4.5v-1.6a19.1,19.1,0,0,0-.2-2.8,2.68,2.68,0,0,0-.8-1.5,3.23,3.23,0,0,0-3.6.1,3.74,3.74,0,0,0-.9,1.9,32.08,32.08,0,0,0-.2,3.6v8.5c0,2.3.2,3.8.7,4.6a2.36,2.36,0,0,0,2.3,1.2,2.44,2.44,0,0,0,1.8-.6,2.64,2.64,0,0,0,.7-1.6,16.59,16.59,0,0,0,.2-2.4v-2.2h4.5v1.9a15.56,15.56,0,0,1-.6,4.6,5.65,5.65,0,0,1-2.2,3C278.1,377.9,276.6,378,274.7,378Z" transform="translate(0.05 0.05)"/><path class="cls-12" d="M293.8,378a8.18,8.18,0,0,1-4.7-1.2,6.46,6.46,0,0,1-2.4-3.4,16.61,16.61,0,0,1-.7-5.3v-7.8a16,16,0,0,1,.7-5.2,6.62,6.62,0,0,1,2.4-3.4,8,8,0,0,1,4.7-1.2,8.18,8.18,0,0,1,4.7,1.2,6.46,6.46,0,0,1,2.4,3.4,16.37,16.37,0,0,1,.7,5.2v7.8a17,17,0,0,1-.7,5.3,6.62,6.62,0,0,1-2.4,3.4A8,8,0,0,1,293.8,378Zm0-3.6a2.35,2.35,0,0,0,2-.8,4.4,4.4,0,0,0,.7-2.2,27.15,27.15,0,0,0,.1-2.9V360a27.15,27.15,0,0,0-.1-2.9,4.77,4.77,0,0,0-.7-2.2,2.26,2.26,0,0,0-2-.9,2.15,2.15,0,0,0-2,.9,4.77,4.77,0,0,0-.7,2.2,27.15,27.15,0,0,0-.1,2.9v8.4a28.1,28.1,0,0,0,.1,2.9,4.77,4.77,0,0,0,.7,2.2A2.15,2.15,0,0,0,293.8,374.4Z" transform="translate(0.05 0.05)"/><path class="cls-13" d="M306.2,377.7V350.8h4.6v2.6a9.28,9.28,0,0,1,3-2.3,7.84,7.84,0,0,1,3.3-.7,5,5,0,0,1,2.7.7,4.14,4.14,0,0,1,1.7,2.6,10.48,10.48,0,0,1,3.1-2.6,8.63,8.63,0,0,1,3.6-.8,4.75,4.75,0,0,1,2.4.6,4.25,4.25,0,0,1,1.7,2,8.84,8.84,0,0,1,.7,3.6v21.1h-4.6V356.8a3.93,3.93,0,0,0-.6-2.6,2.41,2.41,0,0,0-1.7-.7,4.2,4.2,0,0,0-2.1.6,7.42,7.42,0,0,0-2,1.6v21.9h-4.6V356.8a3.93,3.93,0,0,0-.6-2.6,2.41,2.41,0,0,0-1.7-.7,4.2,4.2,0,0,0-2.1.6,9.76,9.76,0,0,0-2.1,1.6v21.9h-4.7Z" transform="translate(0.05 0.05)"/></g></svg>