<svg id="icon" height="512" viewBox="0 0 128 128" width="512" xmlns="http://www.w3.org/2000/svg"><path d="m88.21 78.391a16.78 16.78 0 0 0 5.674-32.575 11.88 11.88 0 0 0 -17.114-12.634 19.426 19.426 0 0 0 -35.715 10.594c0 .372.035.735.056 1.1-.437-.034-.875-.067-1.321-.067a16.79 16.79 0 1 0 0 33.579z" fill="#eeefee"/><path d="m76.956 84.771h-6.383a.219.219 0 0 1 -.219-.219v-22.165a.219.219 0 0 0 -.219-.219h-12.27a.219.219 0 0 0 -.219.219v22.165a.219.219 0 0 1 -.219.219h-6.383a.219.219 0 0 0 -.179.345l12.935 18.449a.219.219 0 0 0 .359 0l12.976-18.449a.219.219 0 0 0 -.179-.345z" fill="#ef5261"/></svg>