<svg id="Слой_1" data-name="Слой 1" xmlns="http://www.w3.org/2000/svg" viewBox="0 0 484.16 440.17"><defs><style>.cls-1{fill:#190000;stroke:#000;stroke-width:2px;}.cls-1,.cls-2{fill-rule:evenodd;}.cls-2{fill:#841e25;}</style></defs><path class="cls-1" d="M489.37,298.7l-.11,0-25.77,13.49-.13-.16v.55l-12.51-2.87-2.15,2.37,1.22,4.14,6.5-.21,2.5,8.43-15.36.48-.83.42-4.13-14.11-1.22-.76,10.82-11.92.16.1v-.08l7.6,1.75,12.34-6.47-1-10.68-10.6-11.66-.09.91-48.13-10.92,0,1-59.37,2.9,13.2,9.7h.05l0,.06,0,0,0,0,12.16,46-2.77.87,10.75,29.89-2.63.81,8.2,23.14,14.26,3.65,13-8.76,1.43-11.48L413.6,357l-.12.36-15.65,2.3,3.49-10.75L417,346.56l-.47,1.45,1.11-.55L430,356.87l-.53.27.89.48-3.08,24.72-1-.53L405,396.17l-.35-1-.46,1.17-34.67-8.86.18-.48-.06,0-9.9-28-2.13.65L346.88,330l-4.5,1.42-6.53-24.67-31.29-23,17.76,34.87h.06l0,.07,0,0,0,0-9.75,46.57-2.87-.46-3.8,31.52-2.7-.45-3.05,24.35L311.25,430l15.5-2,6.47-9.7-1-2-.36.38-14.79-4.87,7.82-8,14,4.62h.6l.12.23h0l0,0,6.72,13.72h-.63l.28.39-13.81,20.73-.65-.92-25.43,3.31.13-1-.93.84-26.92-23.41.38-.35h-.06l3.69-29.42-2.19-.36L284,360.82l-4.65-.75,5.23-25-30.26-59.41-15.87-.08L208,335.33l5.25,25-4.66.74,3.78,31.41-2.19.37,3.71,29.49h-.07l.38.35-27,23.47-.93-.84.12,1-25.52-3.32-.65.93L146.38,423.2l.58-.83h-.59l6.85-14h1.24l-1.08-1.09,15-4.94,8,8.07-15,4.95-.27-.27-1.78,3.65,6.43,9.65,15.56,2,11.11-9.65-3.07-24.41-2.7.45-3.82-31.6-2.87.46L170.14,319l0,0,0,0,0-.07h.06L188,284l-33.18,24.44-6.53,24.73-4.5-1.42L133.06,361.5l-2.13-.66-9.9,28-.06,0,.19.48-34.67,8.89L86,397.05l-.35,1L64.36,383.62l-1,.53-3.07-24.78.89-.48-.53-.27L73,349.19l1.11.55-.47-1.45,15.65,2.31,3.5,10.78-15.66-2.31-.11-.36-3.23,2.46,1.43,11.51,13,8.78,14.26-3.65,8.19-23.2-2.62-.81,10.75-30-2.78-.88,12.16-46.12,0,0,0,0,0-.07.05,0L142.8,266l-54.55-2.66,0-1L40.14,273.25l-.09-.91L29.45,284l-1,10.68,12.34,6.45,7.6-1.74v.08l.16-.1,10.82,11.9-1.22.77L54,326.12l-.83-.42-15.36-.48,2.5-8.42,6.5.21L48,312.87l-2.15-2.36-12.51,2.86v-.55l-.13.16L7.49,299.5l-.11,0L10,271.73l-1-1.08L36.83,240.1l.21.24L88.82,228.6v-.13l.48,0,1.27-.29,0,.36,28.14,1.37-51-13.67.13-.48-1.25.87L34.88,153.89l.72-.5-.82-.45,19.47-49.33-.33-.37.88-1,0,0h0l30.49-35L81.57,56.3,66.79,50.15l-12.13,6L50.4,74.23l-9.56-5.58,5.42-23,.25.15,0-.32L68.8,34.47l.19,2.2,1.13-1.5,23.82,9.91-.61.82,1.22-.26,11.61,33.73-.19,0,.08.08L75.79,114.22,65.35,140.66,86.27,182l60.8,16.29,49.67-13.05c-4.68-4-7.37-8.54-7.37-13.41a13.49,13.49,0,0,1,.38-3.1,13.82,13.82,0,0,1-1.38-5.9,13.05,13.05,0,0,1,.39-3.11,13.68,13.68,0,0,1-1.39-5.89,13,13,0,0,1,.66-4.05,14.11,14.11,0,0,1-2.66-7.95,13.65,13.65,0,0,1,2-7c0-.32,0-.65,0-1a13.27,13.27,0,0,1,.69-4.18,90.77,90.77,0,0,1-5.49-24.33,82,82,0,0,1-5.2-29c0-37.56,24.4-68,54.5-68a44.4,44.4,0,0,1,13.39,2.07c.71,0,1.42-.07,2.14-.07.4,0,.8,0,1.2,0a44.33,44.33,0,0,1,13.27-2c30.1,0,54.5,30.44,54.5,68a82.2,82.2,0,0,1-4.89,28.15,94,94,0,0,1-5.13,24.3,13.43,13.43,0,0,1,1,5.05c0,.33,0,.66,0,1a13.64,13.64,0,0,1,2,7,14.09,14.09,0,0,1-2.65,7.95,13,13,0,0,1,.65,4.05,13.49,13.49,0,0,1-1.38,5.89,13,13,0,0,1,.38,3.11,13.81,13.81,0,0,1-1.37,5.9,13.48,13.48,0,0,1,.37,3.1c0,4.76-2.54,9.23-7,13.13l47.57,12.5,60.89-16.32,20.95-41.45L417.3,113.25,387,78.47l.08-.08-.19,0,11.62-33.79,1.23.26-.62-.82L423,34.07l.3.41v-.1l22.36,11.06,0,.32.24-.14,5.43,23-9.56,5.59-4.28-18.1-12.79-6.33-13.16,5.47-3.75,10.92,30.53,35h0l0,.06.88,1-.34.38L458.38,152l-.83.46.72.5L426.5,215.85l-1.26-.88.13.49L373.73,229.3l32.41-1.59,0-.35,1.27.29.48,0v.14l51.78,11.75.21-.24,27.78,30.57-1,1.08Z" transform="translate(-6.3 -7.37)"/><path class="cls-2" d="M292.33,164.49c-6.15,8.73-15.29,12.46-20.42,8.34s-4.29-14.55,1.86-23.28,15.29-12.47,20.42-8.34S298.48,155.75,292.33,164.49Zm-88-.31c-6.09-8.65-6.92-19-1.84-23.05s14.15-.39,20.24,8.26,6.93,19,1.85,23.05S210.47,172.82,204.37,164.18Z" transform="translate(-6.3 -7.37)"/></svg>