<svg id="Слой_1" data-name="Слой 1" xmlns="http://www.w3.org/2000/svg" xmlns:xlink="http://www.w3.org/1999/xlink" viewBox="0 0 394.4 120"><defs><style>.cls-1{stroke:#000;stroke-width:0.75px;fill:url(#Безымянный_градиент_241);}.cls-1,.cls-2{fill-rule:evenodd;}.cls-2{fill:#841e25;}.cls-3{font-size:116.62px;font-family:BebasNeueBold, Bebas Neue;}.cls-4{fill:url(#Безымянный_градиент_241-2);}</style><linearGradient id="Безымянный_градиент_241" x1="81.56" y1="95.23" x2="81.56" y2="95.45" gradientTransform="matrix(481.99, 0, 0, -438.01, -39254.71, 41820.57)" gradientUnits="userSpaceOnUse"><stop offset="0" stop-color="#b4baab"/><stop offset="0" stop-color="#a29b8f"/><stop offset="0" stop-color="#8c776d"/><stop offset="0" stop-color="#785750"/><stop offset="0" stop-color="#683b37"/><stop offset="0" stop-color="#5b2522"/><stop offset="0" stop-color="#501413"/><stop offset="0" stop-color="#490908"/><stop offset="0" stop-color="#450202"/><stop offset="0" stop-color="#400"/><stop offset="1" stop-color="#170000"/></linearGradient><linearGradient id="Безымянный_градиент_241-2" x1="261.41" y1="104.32" x2="261.41" y2="10.84" gradientTransform="matrix(1, 0, 0, 1, 0, 0)" xlink:href="#Безымянный_градиент_241"/></defs><path class="cls-1" d="M107,76.11h0l-5.56,3,0,0v.12l-2.7-.64-.46.53.26.93,1.4,0,.54,1.89L97.12,82l-.18.1-.89-3.17-.27-.17,2.34-2.68,0,0h0l1.64.39L102.46,75l-.22-2.4L100,70l0,.2L89.55,67.76V68l-12.81.66,2.85,2.17h0v0h0l2.62,10.33-.6.2L84,88.09l-.56.18,1.76,5.2,3.08.82,2.81-2,.31-2.58-.7-.55,0,.08-3.38.52L88,87.38l3.38-.52-.1.32.24-.12,2.67,2.11-.11.06.19.11-.67,5.55-.21-.12L88.79,98l-.08-.22-.1.26-7.48-2,0-.11h0L79,89.67l-.46.15-2.3-6.67-1,.31-1.4-5.54-6.76-5.16L71,80.59h0l-2.1,10.46-.62-.1-.82,7.08-.58-.1-.66,5.47,2.39,2.16,3.34-.45,1.4-2.18-.22-.46-.08.09-3.19-1.1,1.69-1.79,3,1h.13l0,.06h0l1.45,3.08H76l.06.09-3,4.66-.14-.21-5.49.74,0-.23-.2.19-5.81-5.26.09-.07h0l.8-6.6-.47-.09.81-7-1-.17,1.13-5.61L56.29,70.94l-3.43,0L46.29,84.33,47.43,90l-1,.16.82,7.06-.48.08.8,6.62h0l.08.08-5.83,5.27-.2-.19,0,.23-5.51-.74-.14.21-3-4.67.13-.19H33l1.48-3.14h.27l-.24-.24,3.25-1.11,1.71,1.81-3.24,1.11-.06-.06-.38.82,1.39,2.17,3.35.45,2.4-2.17L42.26,98l-.59.1-.82-7.09-.62.1L38.12,80.67h0L42,72.8,34.8,78.29l-1.41,5.55-1-.32-2.3,6.69-.46-.15-2.14,6.3h0l0,.11-7.48,2-.1-.27-.07.22-4.61-3.23-.21.12-.66-5.57.19-.11-.12-.05,2.68-2.12.24.12-.11-.33,3.38.52.75,2.43-3.37-.52,0-.08-.69.55.3,2.58,2.81,2,3.08-.83,1.76-5.21-.56-.18,2.32-6.73-.6-.19L29.07,71.2h0v0h0l3.13-2.39-11.77-.6v-.24L10.07,70.39l0-.2L7.76,72.81,7.54,75.2l2.67,1.45,1.64-.39v0l0,0,2.34,2.67L14,79.1l-.89,3.17-.18-.1-3.31-.11.54-1.89,1.4,0,.26-.93-.46-.53-2.7.64v-.12l0,0L3,76.29H3l.57-6.23-.21-.24,6-6.86.05,0,11.17-2.63v0h.11l.27-.06v.08l6.07.31L16,57.59l0-.1-.27.19L8.93,43.59l.16-.11-.18-.11,4.2-11.07L13,32.21l.19-.22h0l6.58-7.86L19,21.67l-3.19-1.38L13.2,21.64l-.92,4.06-2.06-1.25,1.17-5.16,0,0v-.07l4.81-2.48,0,.49.25-.33,5.14,2.22-.13.19.26-.06,2.5,7.57h0l0,0-6.53,7.8-2.25,5.94L20,49.91l13.12,3.66,10.72-2.93a4.09,4.09,0,0,1-1.59-3,3.27,3.27,0,0,1,.08-.7,3.26,3.26,0,0,1-.3-1.33,2.72,2.72,0,0,1,.09-.69A3.07,3.07,0,0,1,42,42.67a3.21,3.21,0,0,1-.57-1.78,3.14,3.14,0,0,1,.44-1.58,1.55,1.55,0,0,1,0-.22,3,3,0,0,1,.15-.94,21,21,0,0,1-1.19-5.46,19,19,0,0,1-1.12-6.51c0-8.43,5.27-15.27,11.76-15.27a9.35,9.35,0,0,1,2.89.46h.72a9.16,9.16,0,0,1,2.86-.46c6.5,0,11.76,6.84,11.76,15.27a19.3,19.3,0,0,1-1,6.32A22.23,22.23,0,0,1,67.51,38a3.15,3.15,0,0,1,.22,1.13,1.55,1.55,0,0,1,0,.22,3.14,3.14,0,0,1,.44,1.58,3.21,3.21,0,0,1-.57,1.78,3.07,3.07,0,0,1-.16,2.24,3.13,3.13,0,0,1-.21,2,3.27,3.27,0,0,1,.08.7,4,4,0,0,1-1.52,2.94l10.27,2.81,13.14-3.66,4.52-9.31-2.26-5.95-6.54-7.81,0,0h0L87.4,19l.26.05-.13-.18,5.15-2.23.06.09v0l4.83,2.48v.08l0,0,1.18,5.17-2.07,1.25-.92-4.06L93,20.21,90.2,21.43l-.81,2.46L96,31.76h0v0l.19.22-.08.09,4.21,11.09-.18.1.16.12L93.43,57.5l-.27-.19,0,.1L82.05,60.52l7-.35v-.08l.27.06h.11v0l11.17,2.64.05-.06,6,6.87-.21.24Z" transform="translate(-2.6 0)"/><path class="cls-2" d="M63.85,46c-1.25,2-3.1,2.8-4.14,1.87s-.86-3.27.38-5.23,3.09-2.8,4.13-1.87S65.09,44,63.85,46Zm-17.8-.07c-1.24-1.94-1.4-4.26-.38-5.18s2.87-.08,4.1,1.86,1.4,4.26.37,5.17S47.28,47.84,46.05,45.9Z" transform="translate(-2.6 0)"/><text class="cls-3" transform="translate(121.01 99.13) scale(0.95 1)">GCLIPSA</text><path class="cls-4" d="M146.31,53.64h17.06V79.53q0,9.91-4.6,15.22t-13.57,5.31q-9,0-13.57-5.31T127,79.53V37.08q0-9.9,4.59-15.21t13.57-5.31q9,0,13.57,5.31t4.6,15.21V45H151.85V36.27c0-3-.57-5-1.72-6.24a6.74,6.74,0,0,0-9.19,0c-1.15,1.21-1.72,3.28-1.72,6.24V80.35q0,4.44,1.72,6.18a6.91,6.91,0,0,0,9.19,0q1.73-1.74,1.72-6.18v-15h-5.54Z" transform="translate(-2.6 0)"/><path class="cls-4" d="M206.58,68.69V79.53q0,9.91-4.6,15.22t-13.57,5.31q-9,0-13.57-5.31t-4.6-15.22V37.08q0-9.9,4.6-15.21t13.57-5.31q9,0,13.57,5.31t4.6,15.21V45H195.06V36.27c0-3-.58-5-1.72-6.24a6.75,6.75,0,0,0-9.2,0c-1.14,1.21-1.71,3.28-1.71,6.24V80.35q0,4.44,1.71,6.18a6.92,6.92,0,0,0,9.2,0c1.14-1.16,1.72-3.22,1.72-6.18V68.69Z" transform="translate(-2.6 0)"/><path class="cls-4" d="M214,17.49h12.18v70h20V99.13H214Z" transform="translate(-2.6 0)"/><path class="cls-4" d="M251.55,17.49h12.19V99.13H251.55Z" transform="translate(-2.6 0)"/><path class="cls-4" d="M290.54,17.49q9.19,0,13.68,5.13t4.49,15.05V48.28q0,9.91-4.49,15t-13.68,5.14h-5.76V99.13H272.6V17.49Zm-5.76,11.66V56.79h5.76A5.81,5.81,0,0,0,295,55.16q1.56-1.63,1.56-6.06V36.85q0-4.43-1.56-6.06a5.81,5.81,0,0,0-4.43-1.64Z" transform="translate(-2.6 0)"/><path class="cls-4" d="M313.36,37.08q0-9.9,4.49-15.21t13.46-5.31q9,0,13.46,5.31t4.48,15.21v2.57H337.73V36.27c0-3-.53-5-1.6-6.24a6.47,6.47,0,0,0-9,0c-1.07,1.21-1.6,3.28-1.6,6.24a15,15,0,0,0,1.77,7.4,30.86,30.86,0,0,0,4.43,6.07c1.77,1.9,3.67,3.81,5.71,5.71a56.59,56.59,0,0,1,5.7,6.24,32.2,32.2,0,0,1,4.43,7.7,26.63,26.63,0,0,1,1.78,10.14q0,9.91-4.6,15.22t-13.57,5.31q-9,0-13.57-5.31T313,79.53v-5h11.52v5.83q0,4.44,1.72,6.18a6.91,6.91,0,0,0,9.19,0q1.73-1.74,1.72-6.18a15,15,0,0,0-1.77-7.4A30.86,30.86,0,0,0,331,66.88c-1.78-1.9-3.68-3.81-5.71-5.71a56.59,56.59,0,0,1-5.7-6.24,32.22,32.22,0,0,1-4.44-7.7A26.65,26.65,0,0,1,313.36,37.08Z" transform="translate(-2.6 0)"/><path class="cls-4" d="M395.78,99.13H383.49l-2.11-14.81h-15l-2.1,14.81H353.13l12.41-81.64h17.83ZM368,73.24h11.74L373.85,32Z" transform="translate(-2.6 0)"/></svg>