<?xml version="1.0" encoding="utf-8"?>
<!-- Generator: Adobe Illustrator 25.1.0, SVG Export Plug-In . SVG Version: 6.00 Build 0)  -->
<svg version="1.1" id="Слой_1" xmlns="http://www.w3.org/2000/svg" xmlns:xlink="http://www.w3.org/1999/xlink" x="0px" y="0px"
	 viewBox="0 0 457.5 332.3" style="enable-background:new 0 0 457.5 332.3;" xml:space="preserve">
<style type="text/css">
	.st0{fill-rule:evenodd;clip-rule:evenodd;fill:url(#SVGID_1_);stroke:#210000;stroke-width:5.5;}
	.st1{fill-rule:evenodd;clip-rule:evenodd;fill:#190000;stroke:#000000;stroke-width:0.75;}
	.st2{fill-rule:evenodd;clip-rule:evenodd;fill:#841E25;}
</style>
<linearGradient id="SVGID_1_" gradientUnits="userSpaceOnUse" x1="168.1284" y1="203.0586" x2="168.1284" y2="204.0586" gradientTransform="matrix(452 0 0 -326.84 -75765.25 66697.0859)">
	<stop  offset="0" style="stop-color:#6B2828"/>
	<stop  offset="1" style="stop-color:#622121"/>
</linearGradient>
<path class="st0" d="M400.2,219.6c-28,0-51.4-21.2-54.2-49h-60.8c-0.5,12.7-5.2,24.9-13.5,34.6l27.5,27.4
	c21.9-22.6,58-23.1,80.6-1.2s23.1,58,1.2,80.6c-21.9,22.6-58,23.1-80.6,1.2c-21.2-20.6-23.1-53.9-4.5-76.8l-27.5-27.5
	c-21.3,21.2-55.4,22.2-78,2.3l-27.3,27.3c18.8,25.5,13.4,61.5-12.1,80.3s-61.5,13.4-80.3-12.1s-13.4-61.5,12.1-80.3
	c23.9-17.7,57.4-14.1,77.1,8.1l26.9-26.9c-9.6-10.1-15.2-23.3-15.8-37.2h-59.3c-1.4,30.1-26.9,53.3-56.9,51.9
	c-30.1-1.4-53.3-26.9-51.9-56.9s26.9-53.3,56.9-51.9c28.1,1.3,50.7,23.8,51.9,51.9H171c0.6-12.4,5.2-24.2,13.2-33.8l-29.2-29
	c-23.6,21.1-59.9,19.1-81-4.5s-19.1-59.9,4.5-81s59.9-19.1,81,4.5c19.7,22,19.5,55.5-0.6,77.2l28.9,29c22.4-22.3,58.5-22.2,80.8,0.2
	c0.2,0.2,0.3,0.3,0.5,0.5L298.6,99c-21.6-23.1-20.3-59.2,2.7-80.8s59.2-20.3,80.8,2.7c21.6,23.1,20.3,59.2-2.7,80.8
	c-21.6,20.1-54.9,20.6-77,1l-29.8,29.8c7.6,9.4,12,21,12.6,33.1h60.5c0-0.2,0-0.3,0-0.5c0-30.1,24.4-54.5,54.5-54.5
	s54.5,24.4,54.5,54.5S430.4,219.6,400.2,219.6L400.2,219.6L400.2,219.6z"/>
<g id="Page-1">
	<g id="_055---Refresh-Page">
		<path id="Shape" d="M53.9,145.6h7.9c0.7,0.1,1.4-0.5,1.4-1.2c0.1-0.7-0.5-1.4-1.2-1.4l0,0h-8.1c-0.7-0.1-1.4,0.5-1.4,1.2
			c-0.1,0.7,0.5,1.4,1.2,1.4C53.7,145.6,53.8,145.6,53.9,145.6z"/>
		<path id="Shape-2" d="M76.1,145.6h14.4c0.7,0.1,1.4-0.5,1.4-1.2c0.1-0.7-0.5-1.4-1.2-1.4H76.1c-0.7-0.1-1.4,0.5-1.4,1.2
			c-0.1,0.7,0.5,1.4,1.2,1.4l0,0C76,145.6,76.1,145.6,76.1,145.6z"/>
		<path id="Shape-3" d="M90.5,137.7H25.1c-3.6,0-6.5,2.9-6.5,6.6V194c0,3.6,2.9,6.5,6.5,6.6l0,0h11.8c8.6,11.6,25,13.9,36.5,5.3l0,0
			c2-1.5,3.8-3.3,5.3-5.3h11.8c3.6,0,6.5-2.9,6.6-6.6v-49.8C97.1,140.7,94.1,137.7,90.5,137.7z M25.1,140.3h65.4
			c2.2,0,3.9,1.8,3.9,3.9v3.9H21.2v-3.9C21.2,142.1,22.9,140.3,25.1,140.3L25.1,140.3L25.1,140.3z M57.8,208.3
			c-7.5,0-14.6-3.6-19.1-9.7c-0.3-0.4-0.3-1,0-1.5l0.1-0.1c0.2-0.3,0.6-0.5,1-0.5l0,0c0.4,0,0.8,0.2,1.1,0.6c0.8,1.1,1.7,2.1,2.6,3
			l0,0c8,7.5,20.4,7.5,28.5,0l0,0c2.8-2.6,4.9-6,5.9-9.7c0.2-0.7-0.1-1.4-0.8-1.7c-0.1,0-0.2-0.1-0.4-0.1h-1.9v-0.2l3.5-4.3l0.1-0.1
			l1.6-2l5.2,6.3l1-0.8l-1,1h-3.1c-0.6,0-1.1,0.4-1.3,1c-2.4,10.8-11.9,18.6-23,18.6L57.8,208.3z M48.5,200.5h18.8
			C61.5,204,54.2,204,48.5,200.5z M90.5,197.8h-10c1.2-2,2.1-4.2,2.7-6.5h2.1c1,0,2-0.6,2.4-1.5c0.5-1,0.3-2.1-0.3-2.9l-5.2-6.3
			c-0.5-0.6-1.2-1-2-1s-1.5,0.4-2,1l-1.7,2l-0.1,0.1l-3.4,4.2c-0.7,0.8-0.8,2-0.3,3c0.4,0.9,1.4,1.5,2.4,1.5l0,0
			c-0.9,2.5-2.4,4.7-4.3,6.5H45.1c-0.7-0.7-1.4-1.5-2-2.3c-0.7-1-1.9-1.6-3.1-1.6c-1.2,0-2.3,0.4-3,1.3l-0.1,0.1
			c-0.6,0.7-0.9,1.6-0.8,2.5h-11c-2.2,0-3.9-1.7-3.9-3.9l0,0l0,0v-43.1h73.3V194C94.5,196.2,92.7,197.9,90.5,197.8L90.5,197.8
			L90.5,197.8z"/>
		<circle id="Oval" cx="25.1" cy="144.3" r="1.3"/>
		<circle id="Oval-2" cx="30.3" cy="144.3" r="1.3"/>
		<circle id="Oval-3" cx="35.6" cy="144.3" r="1.3"/>
		<path id="Shape-4" d="M57.8,158.7c-12.5-0.1-23.2,8.7-25.7,20.9h-1.8c-1,0-2,0.6-2.4,1.5c-0.5,1-0.4,2.2,0.4,3l5.2,6.3
			c0.5,0.6,1.2,1,2,1s1.5-0.4,2-1l5.2-6.3c0.7-0.8,0.8-2,0.3-3c-0.4-0.9-1.4-1.5-2.4-1.5h-0.5c2.9-9.7,13.1-15.2,22.8-12.3
			c4.1,1.2,7.6,3.8,10,7.3c0.7,1,1.9,1.7,3.1,1.8s2.4-0.5,3.2-1.4l0,0c1.1-1.3,1.2-3.2,0.2-4.7c-4.8-7.3-13-11.6-21.7-11.6H57.8z
			 M77.3,173.3c-0.2,0.3-0.6,0.5-1,0.5s-0.8-0.3-1.1-0.6c-6.4-9.6-19.5-12.2-29.1-5.7c-4.6,3.1-7.7,7.8-8.8,13.2
			c-0.1,0.7,0.3,1.4,1,1.5c0.1,0,0.1,0,0.2,0h2.1v0.2l-5.2,6.3l-5.2-6.3l-1,0.8l1-1h2.9c0.6,0,1.2-0.5,1.3-1.1
			c2-12.8,14.1-21.6,26.9-19.5c6.5,1,12.2,4.7,15.9,10.2C77.7,172.3,77.6,172.9,77.3,173.3l0.9,0.9L77.3,173.3z"/>
		<path id="Shape-5" d="M25.1,157.3h2.6c0.7,0,1.3-0.6,1.3-1.3s-0.6-1.3-1.3-1.3h-2.6c-0.7,0-1.3,0.6-1.3,1.3
			C23.8,156.8,24.4,157.3,25.1,157.3z"/>
		<path id="Shape-6" d="M33,157.3h11.8c0.7,0,1.3-0.6,1.3-1.3s-0.6-1.3-1.3-1.3H33c-0.7,0-1.3,0.6-1.3,1.3
			C31.7,156.8,32.3,157.4,33,157.3z"/>
		<path id="Shape-7" d="M36.9,161.3c0-0.7-0.6-1.3-1.3-1.3H25.1c-0.7,0-1.3,0.6-1.3,1.3s0.6,1.3,1.3,1.3h10.5
			C36.3,162.6,36.9,162,36.9,161.3z"/>
		<path id="Shape-8" d="M90.5,154.7h-2.6c-0.7,0-1.3,0.6-1.3,1.3s0.6,1.3,1.3,1.3h2.6c0.7,0,1.3-0.6,1.3-1.3S91.3,154.7,90.5,154.7
			L90.5,154.7z"/>
		<path id="Shape-9" d="M70.9,157.3h11.8c0.7,0,1.3-0.6,1.3-1.3s-0.6-1.3-1.3-1.3H70.9c-0.7,0-1.3,0.6-1.3,1.3
			C69.6,156.8,70.2,157.4,70.9,157.3z"/>
		<path id="Shape-10" d="M90.5,160H80.1c-0.7,0-1.3,0.6-1.3,1.3s0.6,1.3,1.3,1.3h10.5c0.7,0,1.3-0.6,1.3-1.3
			C91.8,160.6,91.3,160,90.5,160L90.5,160z"/>
	</g>
</g>
<g id="surface1">
	<path d="M362,270.1v-15.7c0-0.4-0.2-0.9-0.5-1.2l-17.6-18.5c-0.3-0.3-0.8-0.5-1.3-0.5h-27.9c-5.1,0-9.3,4.2-9.3,9.4v52.8
		c0,5.1,4.1,9.3,9.2,9.3l0,0h22.1c6.8,11.3,21.4,14.9,32.6,8.2c11.3-6.8,14.9-21.4,8.2-32.6C374.2,275.5,368.5,271.5,362,270.1z
		 M344.3,240.3l11.8,12.4h-7.7c-2.3,0-4.2-1.9-4.2-4.2v-8.2H344.3z M314.7,302.2c-3.2,0-5.8-2.6-5.8-5.8l0,0v-52.8
		c0-3.2,2.6-5.9,5.8-5.9H341v10.9c0,4.2,3.4,7.6,7.6,7.6h10v13.5c-0.5,0-0.9-0.1-1.4-0.1c-5.8,0-11.4,2.2-15.8,6h-22
		c-1,0-1.7,0.8-1.7,1.7s0.8,1.7,1.7,1.7l0,0h18.8c-1.2,1.7-2.2,3.5-3,5.4h-15.7c-1,0-1.7,0.8-1.7,1.7s0.8,1.7,1.7,1.7l0,0H334
		c-0.4,1.8-0.7,3.7-0.7,5.6c0,3,0.6,6,1.7,8.8L314.7,302.2L314.7,302.2z M357.2,313.8c-11.2,0-20.3-9.1-20.3-20.3
		s9.1-20.3,20.3-20.3c11.2,0,20.3,9.1,20.3,20.3l0,0l0,0C377.5,304.7,368.4,313.8,357.2,313.8L357.2,313.8L357.2,313.8z"/>
	<path d="M319.4,270.4H337c1,0,1.7-0.8,1.7-1.7l0,0c0-1-0.8-1.7-1.7-1.7h-17.6c-1,0-1.7,0.8-1.7,1.7S318.5,270.3,319.4,270.4
		C319.4,270.3,319.4,270.3,319.4,270.4L319.4,270.4z"/>
	<path d="M366,293.1l-7.1,7.7v-18.9c0-1-0.8-1.7-1.7-1.7c-1,0-1.7,0.8-1.7,1.7v18.9l-7.2-7.7c-0.6-0.7-1.7-0.7-2.4-0.1
		s-0.7,1.7-0.1,2.4l10.1,10.9c0.6,0.7,1.7,0.7,2.4,0.1l0.1-0.1l10.1-10.9c0.7-0.6,0.7-1.7,0.1-2.4c-0.6-0.7-1.7-0.7-2.4-0.1
		C366.1,292.9,366.1,293,366,293.1L366,293.1z"/>
</g>
<path d="M114.6,40.8c-0.7,0-1.3,0.6-1.3,1.3l0,0l0,0v1.7c0.1,0.7,0.7,1.2,1.4,1.2c0.6-0.1,1.1-0.6,1.2-1.2v-1.7
	C115.9,41.4,115.3,40.8,114.6,40.8z"/>
<path d="M118.6,45.2c0.7,0,1.3-0.6,1.3-1.3l0,0l0,0v-1.8c-0.1-0.7-0.7-1.2-1.4-1.2c-0.6,0.1-1.1,0.6-1.2,1.2v1.7
	C117.3,44.6,117.8,45.2,118.6,45.2C118.5,45.2,118.5,45.2,118.6,45.2L118.6,45.2z"/>
<path d="M122.6,45.2c0.7,0,1.3-0.6,1.3-1.3l0,0l0,0v-1.8c-0.1-0.7-0.7-1.2-1.4-1.2c-0.6,0.1-1.1,0.6-1.2,1.2v1.7
	C121.2,44.6,121.8,45.2,122.6,45.2C122.5,45.2,122.5,45.2,122.6,45.2L122.6,45.2z"/>
<path d="M106.4,44.3h3c0.7,0,1.3-0.6,1.3-1.3s-0.6-1.3-1.3-1.3h-3c-0.7,0-1.3,0.6-1.3,1.3S105.7,44.3,106.4,44.3z"/>
<path d="M127.8,44.3h2.9c0.7,0,1.3-0.6,1.3-1.3s-0.6-1.3-1.3-1.3h-3c-0.7,0-1.3,0.6-1.3,1.3S127,44.3,127.8,44.3L127.8,44.3z"/>
<path d="M123.4,52.5h-1.7c-0.7,0-1.3,0.6-1.3,1.3l0,0c0,0.5,0.3,1,0.8,1.2c-0.3,0.4-1,0.5-1.4,0.2c-0.2-0.2-0.4-0.4-0.4-0.7v-2.8
	c0-0.6,0.4-1,1-1c0.3,0,0.5,0.1,0.7,0.3c0.5,0.5,1.3,0.6,1.8,0.1s0.6-1.3,0.1-1.8c-1.3-1.5-3.5-1.6-5-0.3l0,0
	c-0.8,0.7-1.2,1.6-1.2,2.7v2.8c0.1,2,1.8,3.4,3.8,3.3c1.6-0.1,2.9-1.3,3.2-2.8c0.7-0.2,1-1,0.8-1.6C124.5,52.8,124,52.4,123.4,52.5
	L123.4,52.5z"/>
<path d="M114.1,48.2c-0.7,0-1.3,0.5-1.3,1.2v7.3c0.1,0.7,0.7,1.2,1.4,1.2c0.6-0.1,1.1-0.6,1.2-1.2v-7.3
	C115.3,48.7,114.8,48.2,114.1,48.2z"/>
<path d="M110,48.2c-0.7,0-1.3,0.6-1.3,1.3v2.4h-1.9v-2.4c0-0.7-0.6-1.3-1.3-1.3s-1.3,0.6-1.3,1.3v7.3c0,0.7,0.6,1.3,1.3,1.3
	s1.3-0.6,1.3-1.3v-2.4h2v2.3c0.1,0.7,0.7,1.2,1.4,1.2c0.6-0.1,1.1-0.6,1.2-1.2v-7.3C111.4,48.7,110.8,48.2,110,48.2L110,48.2z"/>
<path d="M131.6,48.2c-0.7,0-1.3,0.6-1.3,1.3v2.4h-1.9v-2.4c0-0.7-0.6-1.3-1.3-1.3s-1.3,0.6-1.3,1.3v7.3c0,0.7,0.6,1.3,1.3,1.3
	s1.3-0.6,1.3-1.3v-2.4h1.9v2.3c0.1,0.7,0.7,1.2,1.4,1.2c0.6-0.1,1.1-0.6,1.2-1.2v-7.3C132.9,48.7,132.3,48.2,131.6,48.2z"/>
<path d="M150.8,60.1v-0.9c0-9.6-4.2-18.6-11.6-24.7v-16c0-1.9-1.5-3.4-3.4-3.4c-0.4,0-0.7,0.1-1.1,0.2l-16.2,5.9l-16.1-5.9
	c-1.8-0.6-3.7,0.3-4.3,2c-0.1,0.4-0.2,0.8-0.2,1.2v4c0,0.7,0.6,1.3,1.3,1.3s1.3-0.6,1.3-1.3l0,0v-4c0-0.4,0.4-0.8,0.8-0.8
	c0.1,0,0.2,0,0.3,0l16.6,6c0.3,0.1,0.6,0.1,0.9,0l16.6-6c0.4-0.1,0.9,0.1,1,0.5c0,0.1,0,0.2,0.1,0.2v14c-10.9-7.4-25.3-7.4-36.2,0
	v-4.1c0-0.7-0.6-1.3-1.3-1.3S98,27.6,98,28.3v6.1c-7.3,6.1-11.5,15.2-11.5,24.7V60c-1.2,0.4-2,1.6-2,2.8v14.3c0,1.7,1.3,3,3,3H94
	c1.2,1.4,2.4,2.6,3.8,3.8v15.9c0,1.9,1.5,3.4,3.4,3.4c0.4,0,0.8-0.1,1.2-0.2l16.1-5.8l16.2,5.8c1.8,0.6,3.7-0.3,4.3-2
	c0.1-0.4,0.2-0.8,0.2-1.2v-16c1.4-1.1,2.6-2.4,3.8-3.8h6.6c1.7,0,3-1.3,3-3V62.9C152.7,61.7,152,60.6,150.8,60.1z M118.6,29.5
	c16.4,0,29.6,13.3,29.7,29.7v0.7h-3.1v-0.7c0-5.6-1.8-11.1-5.1-15.7c-0.5-0.5-1.3-0.6-1.8-0.1c-0.5,0.4-0.6,1.1-0.3,1.7
	c3,4.1,4.6,9.1,4.6,14.2V60h-48v-0.7c0-13.3,10.7-24,23.9-24.1c5.8,0,11.3,2,15.7,5.8c0.5,0.5,1.4,0.4,1.8-0.1l0,0
	c0.5-0.5,0.4-1.4-0.1-1.8c-11.1-9.6-27.9-8.4-37.5,2.8C94.3,46.6,92,52.8,92,59.2v0.7h-3v-0.7C89,42.8,102.2,29.6,118.6,29.5
	L118.6,29.5z M121.2,88.7c-0.7,0-1.2,0.6-1.2,1.4c0,0.7,0.6,1.3,1.3,1.2l0,0h0.1c5.5-0.5,10.7-2.3,15.2-5.4v14
	c0,0.3-0.1,0.5-0.4,0.7c-0.2,0.2-0.5,0.2-0.7,0.1l-16.6-6c-0.3-0.1-0.6-0.1-0.9,0l-16.6,6c-0.2,0.1-0.5,0.1-0.7-0.1
	s-0.4-0.4-0.3-0.7v-14c4.4,3,9.5,4.9,14.9,5.4h0.1c0.7,0,1.3-0.5,1.3-1.2l0,0c0-0.7-0.5-1.3-1.2-1.4l0,0c-6.8-0.7-13.2-3.7-18-8.6
	h4.6c4.7,3.7,10.4,5.7,16.4,5.7c5.9,0,11.7-2,16.4-5.7h4.6C134.7,85.2,128.2,88.2,121.2,88.7L121.2,88.7z M106.8,80.2h23.5
	C123,84.3,114.1,84.3,106.8,80.2z M150.2,77.2c0,0.2-0.2,0.4-0.4,0.4H87.4c-0.2,0-0.4-0.2-0.4-0.4l0,0l0,0V62.9
	c0-0.2,0.2-0.4,0.4-0.4l0,0h62.4c0.2,0,0.4,0.2,0.4,0.4V77.2z"/>
<path d="M99.4,71.4v-2.8c0-2-1.6-3.5-3.5-3.5s-3.5,1.6-3.5,3.5v2.8c0,1.9,1.5,3.5,3.5,3.6l0,0c0.5,0,1-0.1,1.5-0.3
	c0.5,0.5,1.4,0.4,1.8-0.1s0.4-1.2,0-1.7C99.3,72.4,99.4,71.9,99.4,71.4L99.4,71.4z M94.9,71.4v-2.8c-0.1-0.5,0.2-1.1,0.7-1.2
	s1,0.1,1.2,0.6c0.1,0.2,0.1,0.4,0,0.6v2.2c-0.7-0.2-1.4,0.2-1.6,0.9c0,0.1,0,0.3,0,0.4C95,72,94.9,71.7,94.9,71.4z"/>
<path d="M106.3,65.1c-0.7,0-1.3,0.5-1.3,1.3l0,0l0,0v5c-0.2,0.5-0.7,0.8-1.3,0.7c-0.3-0.1-0.6-0.3-0.7-0.7v-5
	c-0.1-0.7-0.7-1.2-1.4-1.2c-0.6,0.1-1.1,0.6-1.2,1.2v5c0,2,1.6,3.5,3.5,3.5s3.5-1.6,3.5-3.5v-5C107.6,65.7,107,65.1,106.3,65.1
	L106.3,65.1L106.3,65.1z"/>
<path d="M127.1,65.1c-0.7,0-1.3,0.6-1.3,1.3l0,0l0,0v7.3c0,0.7,0.6,1.3,1.3,1.3s1.3-0.6,1.3-1.3v-7.3
	C128.4,65.7,127.8,65.1,127.1,65.1L127.1,65.1z"/>
<path d="M112.6,65.2c-1.9,0-3.5,1.6-3.5,3.5l0,0l0,0v5c0,0.7,0.6,1.3,1.3,1.3s1.3-0.6,1.3-1.3v-1.4h1.9v1.4c0,0.7,0.6,1.3,1.3,1.3
	s1.3-0.6,1.3-1.3v-5C116.1,66.7,114.5,65.2,112.6,65.2z M111.8,69.7v-1c0.1-0.5,0.5-0.9,1-0.8c0.4,0,0.8,0.4,0.8,0.8v1H111.8z"/>
<path d="M123.3,72.4h-3.1v-6c0-0.7-0.6-1.3-1.3-1.3s-1.3,0.6-1.3,1.3v7.2c0,0.7,0.6,1.3,1.3,1.3l0,0h4.4c0.7-0.1,1.2-0.7,1.2-1.4
	C124.4,72.9,123.9,72.4,123.3,72.4L123.3,72.4z"/>
<path d="M144.3,65.4c-0.6-0.4-1.4-0.3-1.8,0.3l0,0l-1.2,1.6l-1.2-1.6c-0.4-0.6-1.2-0.7-1.8-0.3l0,0l0,0c-0.6,0.4-0.7,1.2-0.3,1.8
	l0,0l0,0l2,2.7v3.8c0,0.7,0.6,1.3,1.3,1.3s1.3-0.6,1.3-1.3v-3.8l2-2.7C145,66.6,144.9,65.8,144.3,65.4L144.3,65.4L144.3,65.4z"/>
<path d="M135.5,65.1H131c-0.7,0-1.3,0.6-1.3,1.3s0.6,1.3,1.3,1.3h0.9v6c0.1,0.7,0.7,1.2,1.4,1.2c0.6-0.1,1.1-0.6,1.2-1.2v-6h0.9
	c0.7,0,1.3-0.6,1.3-1.3S136.2,65.1,135.5,65.1L135.5,65.1z"/>
<path d="M369.4,45.2h-5.8v-6.3c0-3.6-1.4-7-3.8-9.6c-0.4-0.5-1.2-0.5-1.7-0.1l0,0c-0.5,0.5-0.5,1.2-0.1,1.7c2,2.1,3.1,5,3.1,7.9v6.3
	h-24.4c-7.7,0-14,6.3-14,14v4.3h-1.9c-0.7,0-1.5,0.3-2,0.8l-6.4,6.4v-6.5c0-1-0.5-1.9-1.4-2.4c-3.5-2.1-5.7-5.9-5.7-10V38.9
	c0-6.4,5.2-11.6,11.6-11.6h32.5c1.5,0,3,0.3,4.3,0.8c0.6,0.2,1.3,0,1.6-0.7s0-1.3-0.7-1.6l0,0c-1.7-0.7-3.4-1-5.2-1H317
	c-7.7,0-14,6.3-14,14l0,0v12.9c0,4.9,2.6,9.5,6.9,12c0.1,0.1,0.2,0.2,0.2,0.3v7c0,0.9,0.5,1.7,1.3,2s1.7,0.1,2.4-0.5l6.8-6.8
	c0.1-0.1,0.2-0.1,0.3-0.1h1.9V72c0,1.9,0.4,3.7,1.1,5.4c0.3,0.6,1,0.9,1.6,0.6s0.8-0.9,0.6-1.5c-0.6-1.4-0.9-3-0.9-4.5V59.2
	c0-6.4,5.2-11.6,11.6-11.6l0,0h32.7c6.4,0,11.6,5.2,11.6,11.6l0,0v12.9c0,4.1-2.1,7.8-5.6,9.9c-0.8,0.5-1.3,1.4-1.3,2.4v7.8
	l-7.7-7.7c-0.5-0.5-1.3-0.8-2-0.8h-27.6c-2.9,0-5.7-1-7.8-3c-0.5-0.5-1.2-0.4-1.7,0c-0.5,0.5-0.4,1.2,0,1.7l0,0
	c2.6,2.3,6,3.6,9.5,3.6h27.6c0.1,0,0.2,0,0.3,0.1l8.1,8.1c0.6,0.6,1.6,0.8,2.4,0.5s1.3-1.1,1.3-2v-8.4c0-0.1,0.1-0.3,0.2-0.3
	c4.2-2.5,6.8-7.1,6.7-12V59.2C383.3,51.5,377.1,45.2,369.4,45.2L369.4,45.2z"/>
<path d="M349.7,73.8c-0.8-1.1-2.1-1.7-3.5-1.7c-2-0.1-3.8,1.4-4,3.4c0,1.9,1.8,3.4,4,3.4c1.8,0.1,3.4-1,3.9-2.7
	c1.8-0.8,3.2-2.3,3.8-4.1c1.8-0.4,3.1-2,3.1-3.8V64c0-1.8-1.2-3.3-2.9-3.8c-1.1-6-6.9-9.9-12.9-8.7c-4.4,0.8-7.9,4.3-8.7,8.7
	c-1.7,0.5-2.9,2-2.9,3.8v4.3c0,2.2,1.8,3.9,3.9,3.9s3.9-1.8,3.9-3.9V64c0-1.7-1-3.1-2.6-3.7c0.8-4,4.3-6.9,8.4-6.9s7.6,2.9,8.4,6.9
	c-1.5,0.6-2.6,2-2.6,3.7v4.3c0,1.6,0.9,3,2.3,3.6C351.1,72.6,350.4,73.3,349.7,73.8L349.7,73.8z M346.2,76.5c-1,0-1.6-0.5-1.6-1
	s0.7-1,1.6-1s1.6,0.5,1.6,1S347.2,76.5,346.2,76.5z M335.1,68.2c0,0.9-0.7,1.5-1.5,1.5c-0.9,0-1.5-0.7-1.5-1.5l0,0l0,0v-4.3
	c0-0.9,0.7-1.5,1.5-1.5s1.5,0.7,1.5,1.5l0,0V68.2z M351.5,63.9c0-0.9,0.7-1.5,1.5-1.5s1.5,0.7,1.5,1.5l0,0v4.3
	c0,0.9-0.7,1.5-1.5,1.5c-0.9,0-1.5-0.7-1.5-1.5l0,0l0,0V63.9z"/>
<path d="M360.1,57.7h9.6c0.7,0.1,1.2-0.4,1.3-1.1c0.1-0.7-0.4-1.2-1.1-1.3h-9.8c-0.7-0.1-1.2,0.4-1.3,1.1c-0.1,0.6,0.4,1.2,1,1.3
	l0,0H360.1z"/>
<path d="M360.1,63.1h7.4c0.7,0,1.2-0.5,1.2-1.2s-0.5-1.2-1.2-1.2h-7.4c-0.7,0-1.2,0.5-1.2,1.2S359.4,63.1,360.1,63.1z"/>
<circle cx="314.8" cy="40.6" r="1.8"/>
<circle cx="320.3" cy="40.6" r="1.8"/>
<circle cx="325.6" cy="40.6" r="1.8"/>
<path d="M430.8,173.4l-0.4,0.2c-1.5-1.8-4-2.5-6.1-1.5l0,0l-0.9,0.5c-2.2-1.8-5.2-2.1-7.7-0.7l-4.8,2.6h-6.3c-1.4,0-2.8-0.3-4-0.9
	l-0.9-0.4c-5-2.5-11-1.9-15.5,1.5h-0.1l-2.1,1.9c-0.8,0.7-1.7,1.2-2.8,1.5l-1.2-3.9c-0.1-0.4-0.5-0.7-0.9-0.7H367
	c-0.5,0-0.9,0.4-1,0.9l0,0v0.1l3.4,27.8c0.1,0.5,0.5,0.8,0.9,0.8h15.2c0.5,0,0.9-0.4,1-0.9l0,0l0,0c0-0.1,0-0.2,0-0.3l-2-6.6
	l6.2-3.9c0.8-0.5,1.8-0.6,2.7-0.4h0.1l12.7,2.3c3.4,0.6,7,0.1,10.1-1.4c0,0,0.1,0,0.1-0.1l22-15.1c0.4-0.3,0.5-0.8,0.3-1.3
	C437.1,172.7,433.6,171.8,430.8,173.4z M425.1,173.7c1.2-0.5,2.6-0.2,3.5,0.8l-8.3,4.5l-0.5,0.2c-0.3-0.7-0.6-1.4-1.1-2.1
	L425.1,173.7z M416.6,173.5L416.6,173.5c1.5-0.9,3.4-0.9,4.9,0l-4.2,2.3c-0.8-0.6-1.7-1-2.7-1.2L416.6,173.5z M371.3,201.3
	l-3.2-25.9h8.4l7.9,25.9H371.3z M415.5,190.3c-2.8,1.3-5.9,1.8-8.9,1.2l-12.6-2.4c-1.4-0.3-2.9-0.1-4.1,0.6l0,0l-5.8,3.7l-4.1-13.6
	c1.3-0.4,2.5-1.1,3.5-1.9l2.1-1.8c3.9-3,9.1-3.5,13.5-1.3l0.9,0.4c1.5,0.7,3.1,1.1,4.8,1.1h8.4c2.6,0,4.8,1.8,5.2,4.3l-6.1-0.3
	c-2.2-0.1-4.5,0-6.7,0.3c-0.5,0.1-0.9,0.6-0.8,1.1s0.5,0.9,1.1,0.8l0,0c2.1-0.3,4.2-0.4,6.3-0.3l7.2,0.3l0,0c0.5,0,1-0.4,1-0.9v-0.4
	l1-0.5l10.4-5.6c1.7-0.9,3.7-0.6,5,0.8L415.5,190.3z"/>
<path d="M374.3,197.3c0,1.7,1.3,3,3,3s3-1.3,3-3s-1.3-3-3-3S374.3,195.7,374.3,197.3z M377.3,196.3c0.6-0.1,1.1,0.4,1.2,1
	s-0.4,1.1-1,1.2l0,0h-0.2c-0.6,0-1.1-0.5-1.1-1.1C376.2,196.8,376.7,196.3,377.3,196.3L377.3,196.3z"/>
<path d="M409.8,140.6v-3.1c0-4-3.2-7.2-7.2-7.2s-7.2,3.2-7.2,7.2v3.1c0,4,3.2,7.2,7.2,7.2C406.5,147.8,409.7,144.6,409.8,140.6z
	 M397.3,140.6v-3.1c0.1-2.9,2.6-5.2,5.5-5.1c2.7,0.1,4.9,2.3,5.1,5.1v3.1c-0.1,2.9-2.6,5.2-5.5,5.1
	C399.6,145.5,397.4,143.4,397.3,140.6z"/>
<path d="M391,167.3h23.1c0.5,0,0.9-0.4,0.9-0.9l0,0l0,0v-2.1h15.8c0.5,0,1-0.4,1-0.9v-6.1c0-3.7-2.9-6.8-6.6-7.1
	c-0.4,0-0.8,0.2-1,0.5c-1.5,1.9-4.2,2.1-6.1,0.6l0,0c-0.3-0.2-0.5-0.5-0.7-0.8c-0.2-0.2-0.5-0.4-0.8-0.4c-1.2,0-2.4,0.4-3.5,1
	c-1.4-1.6-3.4-2.6-5.5-2.8c-0.4,0-0.8,0.2-1,0.6c-1.8,2.2-5,2.5-7.2,0.7l0,0c-0.3-0.3-0.6-0.6-0.9-0.9c-0.2-0.2-0.5-0.4-0.8-0.4
	c-2.1,0-4,0.9-5.5,2.4c-0.1,0.1-0.2,0.2-0.3,0.4c-1-0.6-2.1-0.9-3.2-1c-0.4,0-0.8,0.2-1,0.5c-1.5,1.9-4.3,2.1-6.1,0.6
	c-0.3-0.2-0.5-0.5-0.7-0.8c-0.2-0.2-0.5-0.4-0.8-0.4c-3.8,0.1-6.9,3.2-6.9,7.1v6.1c0,0.5,0.4,1,0.9,1H390v2.2
	C390,166.9,390.5,167.3,391,167.3z M416.2,151.9c2.3,2.6,6.2,2.8,8.8,0.6l0,0l0,0c0.2-0.2,0.4-0.3,0.5-0.5c2.5,0.4,4.4,2.6,4.4,5.1
	v5.2H415v-6.1c0-1.3-0.3-2.5-0.9-3.6C414.8,152.2,415.5,152,416.2,151.9L416.2,151.9z M397.4,150.2c2.5,2.9,6.9,3.2,9.9,0.7
	c0.3-0.2,0.5-0.4,0.7-0.7c3,0.4,5.2,3,5.2,6v9.2h-21.3v-9.2C391.9,153.1,394.3,150.5,397.4,150.2L397.4,150.2z M375.1,162.3v-5.2
	c0-2.6,2-4.8,4.6-5.2c2.3,2.6,6.2,2.8,8.8,0.6l0,0l0,0c0.2-0.2,0.4-0.3,0.5-0.5c0.7,0.1,1.3,0.3,1.9,0.6c-0.6,1.1-0.9,2.4-0.9,3.6
	v6.1L375.1,162.3z"/>
<path d="M427.2,143.4v-2.7c0-3.5-2.9-6.4-6.4-6.4s-6.4,2.9-6.4,6.4v2.7c0,3.5,2.9,6.4,6.4,6.4C424.3,149.8,427.2,147,427.2,143.4z
	 M416.3,143.4v-2.7c0.2-2.5,2.3-4.4,4.8-4.2c2.3,0.2,4,1.9,4.2,4.2l0,0v2.7c-0.2,2.5-2.3,4.4-4.8,4.2
	C418.2,147.5,416.4,145.7,416.3,143.4z"/>
<path d="M390.7,143.4v-2.7c-0.1-3.5-3.1-6.3-6.7-6.2c-3.3,0.1-6,2.8-6.2,6.2v2.7c0.1,3.5,3.1,6.3,6.7,6.2
	C387.9,149.4,390.5,146.8,390.7,143.4z M379.8,143.4v-2.7c0.2-2.5,2.3-4.4,4.8-4.2c2.3,0.2,4,1.9,4.2,4.2l0,0v2.7
	c-0.2,2.5-2.3,4.4-4.8,4.2C381.7,147.5,379.9,145.7,379.8,143.4z"/>
<path d="M155.2,238.8l-14.6-6.1c-1.6-0.7-3.4-0.7-5,0l-7,2.9c-0.6,0.3-0.9,1-0.6,1.6c0.3,0.6,1,0.9,1.6,0.6l0,0l7-2.9
	c1-0.4,2.1-0.4,3.1,0l14.6,6.1c1.4,0.6,2.3,1.9,2.3,3.4V297c-0.1,2.1-1.8,3.8-3.9,3.7h-2c-0.7,0-1.2,0.6-1.2,1.2
	c0,0.7,0.6,1.2,1.2,1.2h2c3.5,0.1,6.3-2.7,6.4-6.2v-52.5C159.1,242,157.5,239.7,155.2,238.8z"/>
<path d="M145.3,300.7h-20.6c1.7-2,1.7-4.9,0.1-6.9c0.5-0.3,1-0.6,1.3-1c1-1,1.6-2.3,1.6-3.7c0-1.3-0.5-2.5-1.3-3.5
	c0.4-0.2,0.8-0.5,1.1-0.9c2-2,2.1-5.1,0.2-7.2c0.4-0.2,0.8-0.5,1.2-0.9c2.1-2.1,2-5.4,0-7.5c-1-1-2.3-1.5-3.7-1.5h-5.5v-23.1
	c0-1.5,0.9-2.8,2.3-3.4l2.2-0.9c0.6-0.3,0.9-1,0.6-1.6s-0.9-0.8-1.5-0.6l-2.3,0.9c-2.3,0.9-3.8,3.2-3.8,5.7v23.1H112
	c1.7-5.4,1.6-11-0.4-17.6c-0.3-1-0.9-1.8-1.7-2.4c-0.8-0.6-1.8-0.9-2.9-0.9c-2.7,0-4.8,2.1-4.8,4.8c0,0.1,0,0.2,0,0.2
	c0.4,7.4-3,9.9-7.7,13.4c-1.7,1.2-3.3,2.6-4.9,4v-1.6c0-0.7-0.6-1.2-1.2-1.2l0,0H76.5c-0.7,0-1.2,0.6-1.2,1.2l0,0l0,0v34.8
	c0,0.7,0.6,1.2,1.2,1.2l0,0h11.8c0.7,0,1.2-0.6,1.2-1.2l0,0l0,0v-3.1c2.1,0.1,4,0.8,5.7,2c1.1,0.8,2.4,1.3,3.8,1.3h21.7
	c0.9,0.4,1.9,0.7,2.9,0.7h21.8c0.7,0,1.2-0.5,1.2-1.2l0,0C146.6,301.2,146,300.7,145.3,300.7L145.3,300.7L145.3,300.7z M96.8,299.2
	c-2.1-1.5-4.6-2.4-7.2-2.5v-14.3c0-0.7-0.5-1.2-1.2-1.2l0,0c-0.7,0-1.2,0.5-1.2,1.2v18.7h-9.4v-32.3h9.4v8.3c0,0.7,0.6,1.2,1.2,1.2
	c0.7,0,1.2-0.6,1.2-1.2v-4.5c2-2,4.1-3.9,6.4-5.5c4.7-3.5,9.2-6.8,8.7-15.5c-0.1-1.3,0.9-2.4,2.3-2.5c1.1-0.1,2.1,0.6,2.4,1.7
	c2,6.7,2,12.3-0.1,17.6c-0.2,0.6,0.1,1.3,0.7,1.6c0.1,0.1,0.3,0.1,0.4,0.1h14.8c1.6,0,2.8,1.3,2.8,2.8c0,1.6-1.3,2.8-2.8,2.8h-5
	c-0.7,0.1-1.2,0.7-1.1,1.3c0.1,0.6,0.5,1.1,1.1,1.1h3.6c1.6-0.1,2.9,1.1,3,2.7s-1.1,2.9-2.7,3c-0.1,0-0.2,0-0.3,0h-3.7
	c-0.7,0-1.2,0.6-1.2,1.2c0,0.7,0.6,1.2,1.2,1.2h2.3c1.6,0,2.8,1.3,2.8,2.8l0,0l0,0c0,0.8-0.3,1.5-0.8,2s-1.2,0.8-2,0.8h-3.7
	c-0.7-0.1-1.3,0.4-1.3,1.1c-0.1,0.7,0.4,1.3,1.1,1.3l0,0h2.2c1.6,0,2.8,1.3,2.8,2.8c0,0.8-0.3,1.5-0.8,2s-1.2,0.8-1.9,0.8H99
	C98.2,300,97.4,299.7,96.8,299.2L96.8,299.2z"/>
<path d="M142.5,245c0-2.6-2.1-4.7-4.7-4.7s-4.7,2.1-4.7,4.7s2.1,4.7,4.7,4.7l0,0l0,0C140.4,249.7,142.5,247.6,142.5,245z M135.6,245
	c0-1.2,1-2.2,2.2-2.2s2.2,1,2.2,2.2s-1,2.2-2.2,2.2l0,0C136.6,247.3,135.6,246.3,135.6,245L135.6,245z"/>
<path d="M138.6,286.9h-2.2c-1.2,0-2.1-0.9-2.1-2.1l0,0l0,0c0-0.7-0.6-1.2-1.2-1.2c-0.7,0-1.2,0.6-1.2,1.2c0,2.5,2,4.5,4.4,4.6v2.7
	c0,0.7,0.6,1.2,1.2,1.2c0.7,0,1.2-0.6,1.2-1.2l0,0v-2.7c2.5-0.1,4.4-2.1,4.4-4.6v-1.7c0-1.6-1-3-2.5-3.5l-5.5-1.8
	c-0.5-0.2-0.8-0.6-0.8-1.1v-2.4c0-0.9,0.8-1.7,1.7-1.7h3c0.9,0,1.7,0.8,1.7,1.7c-0.1,0.7,0.4,1.3,1.1,1.3c0.7,0.1,1.3-0.4,1.3-1.1
	c0-0.1,0-0.2,0-0.2c0-2.3-1.9-4.2-4.2-4.2h-0.3v-2.7c0-0.7-0.6-1.2-1.2-1.2c-0.7,0-1.2,0.6-1.2,1.2v2.8H136c-2.3,0-4.2,1.9-4.2,4.2
	v2.4c0,1.6,1,3,2.5,3.5l5.5,1.8c0.5,0.2,0.8,0.6,0.8,1.1v1.7C140.7,286,139.8,286.9,138.6,286.9L138.6,286.9L138.6,286.9
	L138.6,286.9z"/>
<g>
	<path class="st1" d="M270.9,181.3L270.9,181.3l-4.5,2.5l0,0v0.1l-2.2-0.5l-0.4,0.4l0.2,0.8h1.1l0.4,1.5l-2.7,0.1l-0.1,0.1l-0.7-2.6
		l-0.2-0.1l1.9-2.2l0,0l0,0l1.3,0.3l2.2-1.2l-0.2-1.9l-1.9-2.1v0.2l-8.4-2v0.2l-10.4,0.5l2.3,1.8l0,0l0,0l0,0l0,0l2.1,8.4l-0.5,0.2
		l1.9,5.4l-0.5,0.1l1.4,4.2l2.5,0.7l2.3-1.6l0.3-2.1l-0.6-0.4v0.1l-2.7,0.4l0.6-2l2.7-0.4l-0.1,0.3l0.2-0.1l2.2,1.7h-0.1l0.2,0.1
		l-0.5,4.5l-0.2-0.1l-3.7,2.6L256,199l-0.1,0.2l-6.1-1.6v-0.1l0,0l-1.7-5.1l-0.4,0.1L246,187l-0.8,0.3l-1.1-4.5l-5.5-4.2l3.1,6.3
		l0,0l0,0l0,0l0,0l-1.7,8.5l-0.5-0.1l-0.7,5.7l-0.5-0.1l-0.5,4.4l1.9,1.8l2.7-0.4l1.1-1.8l-0.2-0.4l-0.1,0.1l-2.6-0.9l1.4-1.4
		l2.5,0.8h0.1l0,0l0,0l0,0l1.2,2.5h-0.1v0.1l-2.4,3.8l-0.1-0.2l-4.4,0.6v-0.2l-0.2,0.2l-4.7-4.3l0.1-0.1l0,0l0.6-5.4l-0.4-0.1
		l0.7-5.7l-0.8-0.1l0.9-4.5l-5.3-10.8h-2.8l-5.3,10.9l0.9,4.6l-0.8,0.1l0.7,5.7l-0.4,0.1l0.6,5.4l0,0l0.1,0.1l-4.7,4.3l-0.2-0.2v0.2
		l-4.5-0.6l-0.1,0.2l-2.4-3.8l0.1-0.2h-0.1l1.2-2.5h0.2L212,201l2.6-0.9l1.4,1.5l-2.6,0.9l0,0l-0.3,0.7l1.1,1.8l2.7,0.4l1.9-1.8
		l-0.5-4.4l-0.5,0.1l-0.7-5.8l-0.5,0.1l-1.7-8.5l0,0l0,0l0,0l0,0l3.1-6.4l-5.8,4.5l-1.1,4.5l-0.8-0.3l-1.9,5.4l-0.4-0.1l-1.7,5.1
		l0,0v0.1l-6.1,1.6l-0.1-0.2l-0.1,0.2l-3.7-2.6l-0.2,0.1l-0.5-4.5l0.2-0.1h-0.1l2.2-1.7l0.2,0.1l-0.1-0.3l2.7,0.4l0.6,2l-2.7-0.4
		v-0.1l-0.6,0.4l0.2,2.1l2.3,1.6l2.5-0.7l1.4-4.2l-0.5-0.1l1.9-5.5l-0.5-0.2l2.1-8.4l0,0l0,0l0,0l0,0l2.5-1.9l-9.5-0.5v-0.2l-8.4,2
		v-0.2l-1.9,2.1l-0.2,1.9l2.2,1.2l1.3-0.3l0,0l0,0l1.9,2.2l-0.2,0.1l-0.7,2.6l-0.1-0.1l-2.7-0.1l0.4-1.5h1.1l0.2-0.8l-0.4-0.4
		l-2.2,0.5v-0.1l0,0l-4.5-2.5l0,0l0.5-5.1l-0.2-0.2l4.9-5.6l0,0l9.1-2.1l0,0h0.1l0.2-0.1v0.1l4.9,0.3l-8.9-2.5v-0.1l-0.2,0.2
		l-5.5-11.4l0.1-0.1l-0.1-0.1l3.4-9l-0.1-0.1l0.2-0.2l0,0l0,0l5.3-6.4l-0.7-2l-2.2-1l-2.1,1.1l-0.7,3.3l-1.7-1l0.9-4.2l0,0v-0.1
		l3.9-2v0.4l0.2-0.3l4.2,1.8l-0.1,0.1h0.2l2,6.1l0,0l0,0l-5.3,6.3l-1.8,4.8l3.7,7.5l10.6,3l8.7-2.4c-0.8-0.7-1.3-1.6-1.3-2.4
		c0-0.2,0-0.4,0.1-0.6c-0.2-0.3-0.2-0.7-0.2-1.1c0-0.2,0-0.4,0.1-0.6c-0.2-0.3-0.2-0.7-0.2-1.1c0-0.3,0-0.5,0.1-0.7
		c-0.3-0.5-0.5-0.9-0.5-1.4c0-0.4,0.1-0.9,0.4-1.3c0-0.1,0-0.1,0-0.2c0-0.3,0-0.5,0.1-0.8c-0.5-1.4-0.8-2.9-1-4.4
		c-0.6-1.6-0.9-3.4-0.9-5.3c0-6.8,4.3-12.4,9.5-12.4c0.8,0,1.6,0.1,2.3,0.4c0.1,0,0.2,0,0.4,0c0.1,0,0.1,0,0.2,0
		c0.7-0.2,1.5-0.4,2.3-0.4c5.3,0,9.5,5.5,9.5,12.4c0,1.8-0.3,3.6-0.9,5.1c-0.1,1.6-0.4,3-0.9,4.4c0.1,0.3,0.2,0.6,0.2,0.9
		c0,0.1,0,0.1,0,0.2c0.2,0.4,0.4,0.8,0.4,1.3s-0.2,1-0.5,1.4c0.1,0.2,0.1,0.5,0.1,0.7c0,0.4-0.1,0.7-0.2,1.1c0,0.2,0.1,0.4,0.1,0.6
		c0,0.4-0.1,0.7-0.2,1.1c0,0.2,0.1,0.4,0.1,0.6c0,0.9-0.4,1.7-1.2,2.4l8.3,2.3l10.7-3l3.7-7.5l-1.8-4.8l-5.3-6.3l0,0l0,0l2-6.2h0.2
		l-0.1-0.1l4.2-1.8l0.1,0.1l0,0l3.9,2v0.1l0,0l0.9,4.2l-1.7,1L262,137l-2.2-1.2l-2.3,1l-0.7,2l5.3,6.4l0,0l0,0l0.2,0.2l-0.1,0.1
		l3.4,9l-0.1,0.1l0.1,0.1l-5.6,11.4l-0.2-0.2v0.1l-9,2.5l5.7-0.3v-0.1l0.2,0.1h0.1l0,0l9.1,2.1l0,0l4.9,5.6l-0.2,0.2L270.9,181.3z"
		/>
</g>
<path class="st2" d="M235.9,156.9c-1,1.6-2.5,2.3-3.4,1.5c-0.8-0.8-0.7-2.6,0.3-4.2c1-1.6,2.5-2.3,3.4-1.5
	C237.1,153.4,236.9,155.3,235.9,156.9z M221.5,156.8c-1-1.6-1.1-3.5-0.3-4.2s2.3-0.1,3.3,1.5s1.1,3.5,0.3,4.2
	C224,159.1,222.5,158.4,221.5,156.8z"/>
</svg>
