<svg id="Capa_1" enable-background="new 0 0 605.458 605.458" height="512" viewBox="0 0 605.458 605.458" width="512" xmlns="http://www.w3.org/2000/svg"><g><g id="Page-1_7_"><g id="_x30_08---Send"><path id="Shape_65_" d="m37.122 151.849 542.304-151.849-354.307 267.537z"/><path id="Shape_64_" d="m237.012 285.355 339.28-256.19-256.19 339.28-75.09-8z"/><path id="Shape_63_" d="m453.609 568.336-115.689-187.998 267.537-354.306z"/><path id="Shape_62_" d="m171.12 445.032c-4.325-.001-8.224-2.607-9.879-6.603s-.74-8.595 2.317-11.654l21.39-21.39c4.197-4.053 10.867-3.995 14.993.13 4.125 4.125 4.183 10.796.13 14.993l-21.39 21.39c-2.005 2.007-4.725 3.134-7.561 3.134z"/><path id="Shape_61_" d="m117.645 498.508c-4.325-.001-8.224-2.607-9.879-6.603s-.74-8.595 2.317-11.654l21.39-21.39c4.197-4.053 10.867-3.995 14.993.13 4.125 4.125 4.183 10.796.13 14.993l-21.39 21.39c-2.005 2.006-4.725 3.133-7.561 3.134z"/><path id="Shape_60_" d="m64.169 551.983c-4.325-.001-8.224-2.607-9.879-6.603s-.74-8.595 2.317-11.654l21.39-21.39c4.197-4.053 10.867-3.995 14.993.13 4.125 4.125 4.183 10.796.13 14.993l-21.39 21.39c-2.004 2.006-4.724 3.133-7.561 3.134z"/><path id="Shape_59_" d="m10.694 605.458c-4.325-.001-8.224-2.607-9.879-6.603-1.655-3.996-.74-8.595 2.317-11.654l21.39-21.39c4.197-4.053 10.867-3.995 14.993.13 4.125 4.125 4.183 10.796.13 14.993l-21.39 21.39c-2.005 2.007-4.725 3.134-7.561 3.134z"/><path id="Shape_58_" d="m256.681 477.118c-4.325-.001-8.224-2.607-9.879-6.603s-.74-8.595 2.317-11.654l21.39-21.39c4.197-4.053 10.867-3.995 14.993.13 4.125 4.125 4.183 10.796.13 14.993l-21.39 21.39c-2.005 2.006-4.725 3.133-7.561 3.134z"/><path id="Shape_57_" d="m203.205 530.593c-4.325-.001-8.224-2.607-9.879-6.603s-.74-8.595 2.317-11.654l21.39-21.39c4.197-4.053 10.867-3.995 14.993.13 4.125 4.125 4.183 10.796.13 14.993l-21.39 21.39c-2.005 2.006-4.724 3.133-7.561 3.134z"/><path id="Shape_56_" d="m139.035 359.472c-4.325-.001-8.224-2.607-9.879-6.603s-.74-8.595 2.317-11.654l21.39-21.39c4.197-4.053 10.867-3.995 14.993.13 4.125 4.125 4.183 10.796.13 14.993l-21.39 21.39c-2.005 2.006-4.725 3.133-7.561 3.134z"/><path id="Shape_55_" d="m85.56 412.947c-4.325-.001-8.224-2.607-9.879-6.603s-.74-8.595 2.317-11.654l21.39-21.39c4.197-4.053 10.867-3.995 14.993.13 4.125 4.125 4.183 10.796.13 14.993l-21.39 21.39c-2.005 2.006-4.725 3.134-7.561 3.134z"/></g></g></g></svg>