<svg id="Слой_1" data-name="Слой 1" xmlns="http://www.w3.org/2000/svg" xmlns:xlink="http://www.w3.org/1999/xlink" viewBox="0 0 1920 141.42"><defs><style>.cls-1,.cls-3{fill-rule:evenodd;}.cls-1{fill:url(#Безымянный_градиент_12);}.cls-2{fill:none;}.cls-3,.cls-4{fill:#8c5858;}</style><linearGradient id="Безымянный_градиент_12" x1="960" y1="141.71" x2="960" y2="0.29" gradientUnits="userSpaceOnUse"><stop offset="0" stop-color="#400"/><stop offset="1" stop-color="#170000"/></linearGradient></defs><path class="cls-1" d="M1920,67v6m-586.71,47H585.71L564,141.71,493.29,71,564,.29,585.71,22h747.58L1355,.29,1425.71,71,1355,141.71ZM0,73V67" transform="translate(0 -0.29)"/><path class="cls-2" d="M1920,67v6m-586.71,47H585.71L564,141.71,493.29,71,564,.29,585.71,22h747.58L1355,.29,1425.71,71,1355,141.71Z" transform="translate(0 -0.29)"/><polyline class="cls-3" points="1451 66.71 1920 66.71 1920 72.71 1451 72.71"/><polyline class="cls-4" points="0 67.71 469 67.71 469 73.71 0 73.71"/></svg>