<svg xmlns="http://www.w3.org/2000/svg" viewBox="0 0 1920 80"><defs><style>.cls-1{isolation:isolate;}.cls-2{fill:#672525;}.cls-3{fill:#210000;}.cls-4{fill:#8c5858;}</style></defs><g id="Прямоугольник_3" data-name="Прямоугольник 3" class="cls-1"><g id="Прямоугольник_3-2" data-name="Прямоугольник 3"><polygon class="cls-2" points="816.09 78.75 813.13 61.96 1103.5 10.68 1115.46 78.38 1113.36 78.75 816.09 78.75"/><path class="cls-2" d="M1102.49,12.13,1114,77.37l-.76.13H817.14L814.58,63l287.91-50.85m2-2.9L811.68,61,815,80h298.43l3.44-.61L1104.52,9.23Z" transform="translate(0 0)"/></g></g><g id="Прямоугольник_3-3" data-name="Прямоугольник 3" class="cls-1"><g id="Прямоугольник_3-4" data-name="Прямоугольник 3"><polygon class="cls-2" points="802.71 1.25 1102.14 1.25 1104.46 14.38 814.08 65.66 802.71 1.25"/><path class="cls-2" d="M1101.09,2.5,1103,13.37,815.1,64.21,804.2,2.5h296.89m2.1-2.5h-302l11.85,67.11,292.84-51.72L1103.19,0Z" transform="translate(0 0)"/></g></g><g id="Прямоугольник_2" data-name="Прямоугольник 2" class="cls-1"><g id="Прямоугольник_2-2" data-name="Прямоугольник 2"><rect class="cls-2" x="1.25" y="1.25" width="812.5" height="63.5"/><path class="cls-2" d="M812.5,2.5v61H2.5V2.5h810M815,0H0V66H815V0Z" transform="translate(0 0)"/></g></g><g id="Прямоугольник_2-3" data-name="Прямоугольник 2" class="cls-1"><g id="Прямоугольник_2-4" data-name="Прямоугольник 2"><rect class="cls-2" x="1100.25" y="15.25" width="818.5" height="63.5"/><path class="cls-2" d="M1917.5,16.5v61h-816v-61h816M1920,14H1099V80h821V14Z" transform="translate(0 0)"/></g></g><g id="Прямоугольник_1" data-name="Прямоугольник 1" class="cls-1"><g id="Прямоугольник_1-2" data-name="Прямоугольник 1"><rect class="cls-3" x="1.25" y="59.25" width="809.5" height="15.5"/><path class="cls-3" d="M809.5,60.5v13H2.5v-13h807M812,58H0V76H812V58Z" transform="translate(0 0)"/></g></g><g id="Прямоугольник_1-3" data-name="Прямоугольник 1" class="cls-1"><g id="Прямоугольник_1-4" data-name="Прямоугольник 1"><polygon class="cls-3" points="810.77 59.3 1107.64 5.56 1110.24 20.68 813.36 74.43 810.77 59.3"/><path class="cls-3" d="M1106.62,7l2.17,12.66L814.38,73l-2.17-12.66L1106.62,7m2-2.91L809.33,58.29l3,17.59,299.34-54.19-3-17.59Z" transform="translate(0 0)"/></g></g><g id="Прямоугольник_1-5" data-name="Прямоугольник 1" class="cls-1"><g id="Прямоугольник_1-6" data-name="Прямоугольник 1"><rect class="cls-3" x="1107.25" y="5.25" width="811.5" height="15.5"/><path class="cls-3" d="M1917.5,6.5v13h-809V6.5h809M1920,4H1106V22h814V4Z" transform="translate(0 0)"/></g></g><g id="Эллипс_1" data-name="Эллипс 1" class="cls-1"><g id="Эллипс_1-2" data-name="Эллипс 1"><circle class="cls-4" cx="1105.5" cy="13.5" r="11"/><path class="cls-3" d="M1105.5,5a8.5,8.5,0,1,1-8.5,8.5,8.51,8.51,0,0,1,8.5-8.5m0-5A13.5,13.5,0,1,0,1119,13.5,13.49,13.49,0,0,0,1105.5,0Z" transform="translate(0 0)"/></g></g><g id="Эллипс_1-3" data-name="Эллипс 1" class="cls-1"><g id="Эллипс_1-4" data-name="Эллипс 1"><circle class="cls-4" cx="813.5" cy="66.5" r="11"/><path class="cls-3" d="M813.5,58a8.5,8.5,0,1,1-8.5,8.5,8.51,8.51,0,0,1,8.5-8.5m0-5A13.5,13.5,0,1,0,827,66.5,13.49,13.49,0,0,0,813.5,53Z" transform="translate(0 0)"/></g></g></svg>