<svg id="Layer_1_copy" height="512" viewBox="0 0 64 64" width="512" xmlns="http://www.w3.org/2000/svg" data-name="Layer 1 copy"><path d="m6 13h53v39h-53z" fill="#23a8cc"/><path d="m53 13v-12l-47 8v4z" fill="#1d7d9f"/><circle cx="12" cy="52" fill="#6a951f" r="11.078"/><path d="m47 25h16v14h-16z" fill="#efc925"/><circle cx="55" cy="32" fill="#1d7d9f" r="2"/><g opacity=".2"><path d="m47 39h12v2h-12z"/></g><g opacity=".2"><path d="m12 40.922a11.041 11.041 0 0 0 -10.758 13.678 16.728 16.728 0 0 0 10.758-2.6 12.867 12.867 0 0 1 10.894-1.969 11.074 11.074 0 0 0 -10.894-9.109z" fill="#fff"/></g><g opacity=".2"><path d="m6 28.082a105.285 105.285 0 0 1 53-7.639v-7.443h-53z" fill="#fff"/></g><g opacity=".2"><path d="m6 11.25 47-3.25v5h-47z"/></g><g fill="#043c49"><path d="m17 51h-4v-4a1 1 0 0 0 -2 0v4h-4a1 1 0 0 0 0 2h4v4a1 1 0 0 0 2 0v-4h4a1 1 0 0 0 0-2z"/><path d="m12 39.922a12.078 12.078 0 1 0 12.078 12.078 12.092 12.092 0 0 0 -12.078-12.078zm0 22.156a10.078 10.078 0 1 1 10.078-10.078 10.089 10.089 0 0 1 -10.078 10.078z"/><path d="m33 49a1 1 0 0 0 0-2h-1a1 1 0 0 0 0 2z"/><path d="m37 49a1 1 0 0 0 0-2h-1a1 1 0 0 0 0 2z"/><path d="m29 49a1 1 0 0 0 0-2h-1a1 1 0 0 0 0 2z"/><path d="m51 18a1 1 0 0 0 0-2h-1a1 1 0 0 0 0 2z"/><path d="m55 18a1 1 0 0 0 0-2h-1a1 1 0 0 0 0 2z"/><path d="m47 18a1 1 0 0 0 0-2h-1a1 1 0 0 0 0 2z"/><path d="m18 12a1 1 0 0 0 0 2h2a1 1 0 0 0 0-2z"/><path d="m6 39a1 1 0 0 0 1-1v-24h7a1 1 0 0 0 0-2h-7v-2.156l45-7.66v6.816a1 1 0 0 0 2 0v-8a1 1 0 0 0 -1.168-.986l-47 8a1 1 0 0 0 -.832.986v29a1 1 0 0 0 1 1z"/><path d="m63 24h-3v-11a1 1 0 0 0 -1-1h-35a1 1 0 0 0 0 2h34v10h-11a1 1 0 0 0 -1 1v14a1 1 0 0 0 1 1h11v11h-31a1 1 0 0 0 0 2h32a1 1 0 0 0 1-1v-12h3a1 1 0 0 0 1-1v-14a1 1 0 0 0 -1-1zm-1 14h-14v-12h14z"/><path d="m55 35a3 3 0 1 0 -3-3 3 3 0 0 0 3 3zm0-4a1 1 0 1 1 -1 1 1 1 0 0 1 1-1z"/></g></svg>