<?xml version="1.0" encoding="utf-8"?>
<!-- Generator: Adobe Illustrator 25.1.0, SVG Export Plug-In . SVG Version: 6.00 Build 0)  -->
<svg version="1.1" id="Слой_1" xmlns="http://www.w3.org/2000/svg" xmlns:xlink="http://www.w3.org/1999/xlink" x="0px" y="0px"
	 viewBox="0 0 1920 1080" style="enable-background:new 0 0 1920 1080;" xml:space="preserve">
<style type="text/css">
	.st0{fill:#470000;stroke:#470000;stroke-linejoin:round;stroke-miterlimit:1;}
	.st1{fill:#4A0000;stroke:#4A0000;stroke-linejoin:round;stroke-miterlimit:1;}
	.st2{fill:#440000;stroke:#440000;stroke-linejoin:round;stroke-miterlimit:1;}
	.st3{fill:#410000;stroke:#410000;stroke-linejoin:round;stroke-miterlimit:1;}
	.st4{fill:#420000;stroke:#420000;stroke-linejoin:round;stroke-miterlimit:1;}
	.st5{fill:#690000;stroke:#690000;stroke-linejoin:round;stroke-miterlimit:1;}
	.st6{fill:#4C0000;stroke:#4C0000;stroke-linejoin:round;stroke-miterlimit:1;}
	.st7{fill:#4F0000;stroke:#4F0000;stroke-linejoin:round;stroke-miterlimit:1;}
	.st8{fill:#490000;stroke:#490000;stroke-linejoin:round;stroke-miterlimit:1;}
	.st9{fill:#430000;stroke:#430000;stroke-linejoin:round;stroke-miterlimit:1;}
	.st10{fill:#3D0000;stroke:#3D0000;stroke-linejoin:round;stroke-miterlimit:1;}
	.st11{fill:#460000;stroke:#460000;stroke-linejoin:round;stroke-miterlimit:1;}
	.st12{fill:#5B0000;stroke:#5B0000;stroke-linejoin:round;stroke-miterlimit:1;}
	.st13{fill:#480000;stroke:#480000;stroke-linejoin:round;stroke-miterlimit:1;}
	.st14{fill:#4B0000;stroke:#4B0000;stroke-linejoin:round;stroke-miterlimit:1;}
	.st15{fill:#450000;stroke:#450000;stroke-linejoin:round;stroke-miterlimit:1;}
	.st16{fill:#400000;stroke:#400000;stroke-linejoin:round;stroke-miterlimit:1;}
	.st17{fill:#510000;stroke:#510000;stroke-linejoin:round;stroke-miterlimit:1;}
	.st18{fill:#3E0000;stroke:#3E0000;stroke-linejoin:round;stroke-miterlimit:1;}
	.st19{fill:#4D0000;stroke:#4D0000;stroke-linejoin:round;stroke-miterlimit:1;}
	.st20{fill:#560000;stroke:#560000;stroke-linejoin:round;stroke-miterlimit:1;}
	.st21{fill:#390000;stroke:#390000;stroke-linejoin:round;stroke-miterlimit:1;}
	.st22{fill:#3C0000;stroke:#3C0000;stroke-linejoin:round;stroke-miterlimit:1;}
</style>
<polygon class="st0" points="1921,491 1724,414 1751,569 "/>
<polygon class="st1" points="1921,491 1757,301 1731,357 "/>
<polygon class="st0" points="1921,491 1731,357 1724,414 "/>
<polygon class="st2" points="1921,889 1921,723 1789,796 "/>
<polygon class="st3" points="1921,889 1789,796 1845,1079 "/>
<polygon class="st2" points="1921,685 1789,796 1921,723 "/>
<polygon class="st4" points="1921,685 1744,630 1789,796 "/>
<polygon class="st5" points="1921,496 1921,491 1751,569 "/>
<polygon class="st6" points="1921,219 1645,145 1757,301 "/>
<polygon class="st7" points="1921,219 1744,-1 1645,145 "/>
<polygon class="st8" points="1921,219 1757,301 1921,491 "/>
<polygon class="st9" points="1921,623 1744,630 1921,685 "/>
<polygon class="st4" points="1921,623 1751,569 1744,630 "/>
<polygon class="st10" points="1921,1079.5 1921,889.1 1845,1079.5 "/>
<polygon class="st11" points="1921,539 1751,569 1921,623 "/>
<polygon class="st9" points="1921,539 1921,496 1751,569 "/>
<polygon class="st12" points="1921,-1 1744,-1 1921,219 "/>
<polygon class="st4" points="1845,1079 1789,796 1517,934 "/>
<polygon class="st4" points="1845,1079.5 1517,934.2 1462,1079.5 "/>
<polygon class="st0" points="1751,569 1724,414 1721,578 "/>
<polygon class="st4" points="1789,796 1744,630 1616,736 "/>
<polygon class="st3" points="1789,796 1616,736 1517,934 "/>
<polygon class="st9" points="1724,414 1573,475 1721,578 "/>
<polygon class="st13" points="1744,-1 1448,-1 1599,91 "/>
<polygon class="st6" points="1744,-1 1599,91 1645,145 "/>
<polygon class="st3" points="1751,569 1721,578 1744,630 "/>
<polygon class="st14" points="1757,301 1576,256 1731,357 "/>
<polygon class="st13" points="1757,301 1645,145 1576,256 "/>
<polygon class="st0" points="1744,630 1721,578 1616,736 "/>
<polygon class="st15" points="1731,357 1573,475 1724,414 "/>
<polygon class="st11" points="1731,357 1576,256 1573,475 "/>
<polygon class="st2" points="1721,578 1573,475 1616,736 "/>
<polygon class="st9" points="1616,736 1573,475 1409,695 "/>
<polygon class="st16" points="1616,736 1493,776 1517,934 "/>
<polygon class="st13" points="1645,145 1599,91 1576,256 "/>
<polygon class="st9" points="1573,475 1368,628 1409,695 "/>
<polygon class="st15" points="1576,256 1393,324 1573,475 "/>
<polygon class="st0" points="1599,91 1448,86 1576,256 "/>
<polygon class="st16" points="1616,736 1409,695 1493,776 "/>
<polygon class="st15" points="1576,256 1448,86 1392,179 "/>
<polygon class="st11" points="1599,91 1448,-1 1448,86 "/>
<polygon class="st15" points="1576,256 1392,179 1393,324 "/>
<polygon class="st2" points="1573,475 1393,324 1368,628 "/>
<polygon class="st16" points="1517,934 1330,914 1462,1079 "/>
<polygon class="st4" points="1517,934 1366,836 1330,914 "/>
<polygon class="st4" points="1517,934 1493,776 1366,836 "/>
<polygon class="st15" points="1393,324 1392,179 1351,228 "/>
<polygon class="st4" points="1493,776 1409,695 1366,836 "/>
<polygon class="st4" points="1393,324 1176,361 1368,628 "/>
<polygon class="st4" points="1462,1079.5 1330,914.2 1001,1079.5 "/>
<polygon class="st11" points="1448,86 1448,-1 1318,-1 "/>
<polygon class="st2" points="1448,86 1318,-1 1392,179 "/>
<polygon class="st15" points="1366,836 1333,861 1330,914 "/>
<polygon class="st9" points="1409,695 1368,628 1247,723 "/>
<polygon class="st9" points="1409,695 1247,723 1366,836 "/>
<polygon class="st2" points="1392,179 1318,-1 1351,228 "/>
<polygon class="st2" points="1393,324 1351,228 1199,275 "/>
<polygon class="st9" points="1393,324 1199,275 1176,361 "/>
<polygon class="st4" points="1247,723 1176,361 1008,596 "/>
<polygon class="st9" points="1318,-1 1074,166 1199,275 "/>
<polygon class="st2" points="1351,228 1318,-1 1199,275 "/>
<polygon class="st3" points="1366,836 1247,723 1333,861 "/>
<polygon class="st4" points="1368,628 1176,361 1247,723 "/>
<polygon class="st3" points="1330,914.2 1148,836 1001,1079.5 "/>
<polygon class="st16" points="1333,861 1305,875 1330,914 "/>
<polygon class="st4" points="1333,861 1247,723 1305,875 "/>
<polygon class="st9" points="1330,914 1305,875 1148,836 "/>
<polygon class="st4" points="1305,875 1247,723 1148,836 "/>
<polygon class="st3" points="1318,-1 961,-1 1074,166 "/>
<polygon class="st4" points="1148,836 1049,868 1001,1079 "/>
<polygon class="st4" points="1247,723 1008,596 1148,836 "/>
<polygon class="st4" points="1148,836 1008,596 1049,868 "/>
<polygon class="st4" points="1176,361 1062,324 1008,596 "/>
<polygon class="st3" points="1199,275 1062,324 1176,361 "/>
<polygon class="st9" points="1199,275 1074,166 1062,324 "/>
<polygon class="st4" points="1049,868 1008,596 921,657 "/>
<polygon class="st3" points="1049,868 921,657 899,784 "/>
<polygon class="st3" points="1049,868.1 961,1079.5 1001,1079.5 "/>
<polygon class="st4" points="1062,324 840,138 852,398 "/>
<polygon class="st4" points="1062,324 856,433 1008,596 "/>
<polygon class="st3" points="1062,324 852,398 856,433 "/>
<polygon class="st4" points="1074,166 961,-1 852,113 "/>
<polygon class="st9" points="1074,166 840,138 1062,324 "/>
<polygon class="st3" points="1074,166 852,113 840,138 "/>
<polygon class="st4" points="1049,868 830,840 961,1079 "/>
<polygon class="st3" points="921,657 893,774 899,784 "/>
<polygon class="st3" points="1049,868 899,784 830,840 "/>
<polygon class="st3" points="852,398 840,138 785,347 "/>
<polygon class="st4" points="921,657 856,433 798,485 "/>
<polygon class="st4" points="921,657 798,485 833,638 "/>
<polygon class="st4" points="1008,596 856,433 921,657 "/>
<polygon class="st0" points="456,-1 1,-1 175,33 "/>
<polygon class="st9" points="961,1079 830,840 713,949 "/>
<polygon class="st9" points="961,1079.5 713,949.2 703,1079.5 "/>
<polygon class="st3" points="961,-1 769,-1 852,113 "/>
<polygon class="st16" points="830,840 740,875 713,949 "/>
<polygon class="st4" points="921,657 833,638 893,774 "/>
<polygon class="st3" points="840,138 734,323 785,347 "/>
<polygon class="st9" points="893,774 833,638 704,769 "/>
<polygon class="st4" points="893,774 704,769 731,813 "/>
<polygon class="st3" points="899,784 893,774 830,840 "/>
<polygon class="st4" points="893,774 731,813 830,840 "/>
<polygon class="st4" points="833,638 798,485 669,570 "/>
<polygon class="st16" points="840,138 762,96 734,323 "/>
<polygon class="st4" points="852,398 761,477 798,485 "/>
<polygon class="st9" points="852,113 769,-1 762,96 "/>
<polygon class="st4" points="856,433 852,398 798,485 "/>
<polygon class="st9" points="798,485 761,477 669,570 "/>
<polygon class="st4" points="833,638 669,570 681,629 "/>
<polygon class="st9" points="852,398 785,347 761,477 "/>
<polygon class="st9" points="852,113 762,96 840,138 "/>
<polygon class="st4" points="833,638 681,629 704,769 "/>
<polygon class="st4" points="830,840 731,813 740,875 "/>
<polygon class="st4" points="762,96 571,212 734,323 "/>
<polygon class="st4" points="785,347 734,323 761,477 "/>
<polygon class="st11" points="513,1079.5 428,1054.5 185,1079.5 "/>
<polygon class="st3" points="769,-1 664,-1 762,96 "/>
<polygon class="st4" points="761,477 734,323 537,461 "/>
<polygon class="st16" points="664,-1 622,-1 571,212 "/>
<polygon class="st9" points="740,875 689,903 713,949 "/>
<polygon class="st4" points="761,477 537,461 669,570 "/>
<polygon class="st16" points="762,96 664,-1 571,212 "/>
<polygon class="st9" points="713,949.2 632,1079.5 703,1079.5 "/>
<polygon class="st4" points="734,323 571,212 552,280 "/>
<polygon class="st3" points="734,323 552,280 537,461 "/>
<polygon class="st9" points="740,875 731,813 667,861 "/>
<polygon class="st4" points="740,875 667,861 689,903 "/>
<polygon class="st4" points="713,949 686,933 632,1079 "/>
<polygon class="st3" points="713,949 689,903 686,933 "/>
<polygon class="st4" points="731,813 655,838 667,861 "/>
<polygon class="st2" points="731,813 704,769 655,838 "/>
<polygon class="st4" points="622,-1 494,99 571,212 "/>
<polygon class="st9" points="704,769 681,629 626,814 "/>
<polygon class="st9" points="704,769 626,814 655,838 "/>
<polygon class="st9" points="681,629 455,557 626,814 "/>
<polygon class="st2" points="686,933.2 513,1079.5 632,1079.5 "/>
<polygon class="st2" points="686,933 533,844 513,1079 "/>
<polygon class="st17" points="689,903 667,861 686,933 "/>
<polygon class="st9" points="626,814 455,557 533,844 "/>
<polygon class="st9" points="686,933 667,861 533,844 "/>
<polygon class="st3" points="681,629 669,570 455,557 "/>
<polygon class="st2" points="655,838 626,814 533,844 "/>
<polygon class="st15" points="667,861 655,838 533,844 "/>
<polygon class="st9" points="669,570 537,461 455,557 "/>
<polygon class="st16" points="552,280 470,370 537,461 "/>
<polygon class="st15" points="533,844 415,890 513,1079 "/>
<polygon class="st4" points="622,-1 462,22 494,99 "/>
<polygon class="st18" points="622,-1 456,-1 462,22 "/>
<polygon class="st11" points="513,1079 415,890 428,1054 "/>
<polygon class="st2" points="533,844 455,557 415,890 "/>
<polygon class="st3" points="571,212 371,282 552,280 "/>
<polygon class="st3" points="571,212 474,102 371,282 "/>
<polygon class="st9" points="571,212 494,99 474,102 "/>
<polygon class="st2" points="474,102 404,110 371,282 "/>
<polygon class="st4" points="552,280 371,282 470,370 "/>
<polygon class="st4" points="537,461 470,370 386,416 "/>
<polygon class="st4" points="537,461 386,416 455,557 "/>
<polygon class="st15" points="455,557 209,844 415,890 "/>
<polygon class="st18" points="494,99 462,22 474,102 "/>
<polygon class="st16" points="404,110 334,154 371,282 "/>
<polygon class="st2" points="455,557 386,416 353,464 "/>
<polygon class="st11" points="428,1054 415,890 338,926 "/>
<polygon class="st2" points="455,557 353,464 209,844 "/>
<polygon class="st11" points="470,370 371,282 361,345 "/>
<polygon class="st15" points="474,102 462,22 404,110 "/>
<polygon class="st9" points="470,370 361,345 386,416 "/>
<polygon class="st6" points="462,22 456,-1 404,110 "/>
<polygon class="st16" points="456,-1 175,33 404,110 "/>
<polygon class="st10" points="353,464 330,450 48,691 "/>
<polygon class="st11" points="353,464 48,691 209,844 "/>
<polygon class="st4" points="404,110 175,33 334,154 "/>
<polygon class="st0" points="415,890 209,844 338,926 "/>
<polygon class="st13" points="428,1054 338,926 217,1032 "/>
<polygon class="st19" points="428,1054 217,1032 185,1079 "/>
<polygon class="st9" points="330,450 156,418 48,691 "/>
<polygon class="st3" points="386,416 361,345 330,450 "/>
<polygon class="st11" points="386,416 330,450 353,464 "/>
<polygon class="st3" points="371,282 334,154 91,208 "/>
<polygon class="st9" points="371,282 91,208 85,304 "/>
<polygon class="st16" points="371,282 85,304 361,345 "/>
<polygon class="st9" points="361,345 85,304 156,418 "/>
<polygon class="st2" points="361,345 156,418 330,450 "/>
<polygon class="st1" points="338,926 209,844 217,1032 "/>
<polygon class="st16" points="334,154 175,33 91,208 "/>
<polygon class="st13" points="47.6,691 0.5,539 0.5,625 "/>
<polygon class="st15" points="156,418 1,539 48,691 "/>
<polygon class="st20" points="185,1079.5 116,857 1,1079.5 "/>
<polygon class="st14" points="209,844 48,691 116,857 "/>
<polygon class="st19" points="217,1032 209,844 116,857 "/>
<polygon class="st7" points="217,1032 116,857 185,1079 "/>
<polygon class="st18" points="175,33 1,44 91,208 "/>
<polygon class="st13" points="116,857 48,691 1,754 "/>
<polygon class="st14" points="175,33 0.5,30 0.5,44 "/>
<polygon class="st18" points="175,33 0.5,-1 0.5,30 "/>
<polygon class="st3" points="156,418 85,304 1,539 "/>
<polygon class="st9" points="84.7,304 0.5,255 0.5,539 "/>
<polygon class="st3" points="90.8,208 0.5,44 0.5,215 "/>
<polygon class="st17" points="116,857 0.5,754 0.5,1079 "/>
<polygon class="st4" points="91,208 1,255 85,304 "/>
<polygon class="st21" points="90.8,208 0.5,242 0.5,255 "/>
<polygon class="st22" points="90.8,208 0.5,215 0.5,242 "/>
<polygon class="st11" points="47.6,691 0.5,625 0.5,754 "/>
</svg>
